<?xml version="1.0" encoding="utf-8"?>
<!-- Generator: Adobe Illustrator 27.5.0, SVG Export Plug-In . SVG Version: 6.00 Build 0)  -->
<svg version="1.1" xmlns="http://www.w3.org/2000/svg" xmlns:xlink="http://www.w3.org/1999/xlink" x="0px" y="0px"
	 viewBox="0 0 500 500" style="enable-background:new 0 0 500 500;" xml:space="preserve">
<g id="BACKGROUND">
	<rect style="fill:#FFFFFF;" width="500" height="500"/>
</g>
<g id="OBJECT">
	<g>
		<g>
			<g>
				<rect x="287.526" y="347.736" style="opacity:0.5;fill:#FFAA3F;" width="125.609" height="5.078"/>
				<rect x="289.703" y="263.728" style="fill:#F3E8E2;" width="121.255" height="84.007"/>
				<rect x="299.743" y="270.684" style="opacity:0.5;fill:#FFAA3F;" width="50.588" height="38.545"/>
				<rect x="299.743" y="311.368" style="opacity:0.5;fill:#FFAA3F;" width="95.269" height="8.429"/>
				<rect x="299.743" y="322.62" style="opacity:0.5;fill:#FFAA3F;" width="95.269" height="8.429"/>
				<rect x="304.954" y="300.134" style="opacity:0.5;fill:#FFAA3F;" width="41.25" height="5.078"/>
				<rect x="304.954" y="283.529" style="opacity:0.5;fill:#FFAA3F;" width="6.337" height="16.605"/>
				<rect x="316.592" y="276.901" style="fill:#F3E8E2;" width="6.337" height="23.232"/>
				<rect x="328.23" y="283.529" style="opacity:0.5;fill:#FFAA3F;" width="6.337" height="16.605"/>
				<rect x="339.868" y="274.044" style="fill:#F3E8E2;" width="6.337" height="26.089"/>
			</g>
			<g>
				<g>
					<rect x="393.586" y="346.743" style="opacity:0.5;fill:#FFAA3F;" width="83.735" height="8.91"/>
					<rect x="399.56" y="355.653" style="fill:#F3E8E2;" width="77.762" height="62.955"/>
				</g>
				<g>
					<polygon style="opacity:0.5;fill:#FFAA3F;" points="439.216,346.743 435.893,331.66 438.806,331.66 442.13,346.743 					"/>
					<path style="opacity:0.5;fill:#FFAA3F;" d="M434.812,346.743H418.55c-0.29,0-0.503-0.271-0.435-0.553l5.352-22.164
						c0.048-0.201,0.228-0.342,0.435-0.342h16.263c0.29,0,0.503,0.271,0.435,0.552l-5.352,22.164
						C435.199,346.601,435.019,346.743,434.812,346.743z"/>
					<path style="fill:#FFFFFF;" d="M432.638,343.592h-10.291c-0.426,0-0.74-0.399-0.64-0.813l3.728-15.441
						c0.071-0.296,0.336-0.504,0.64-0.504h10.291c0.426,0,0.74,0.399,0.64,0.813l-3.728,15.441
						C433.207,343.384,432.943,343.592,432.638,343.592z"/>
					<path style="fill:#F3E8E2;" d="M432.194,332.927c-0.305,1.262-1.575,2.286-2.837,2.286c-1.262,0-2.039-1.023-1.734-2.286
						c0.305-1.262,1.575-2.285,2.837-2.285C431.723,330.642,432.499,331.665,432.194,332.927z"/>
					<path style="fill:#F3E8E2;" d="M429.106,336.253L429.106,336.253c-2.861,0-5.74,2.319-6.43,5.18l-0.521,2.159h10.359
						l0.521-2.159C433.725,338.572,431.966,336.253,429.106,336.253z"/>
				</g>
				<g>
					<g>
						<path style="fill:#F3E8E2;" d="M468.466,334.959h-14.838c-0.418,0-0.77-0.313-0.819-0.727l-0.317-2.668
							c-0.058-0.49,0.325-0.922,0.819-0.922h15.471c0.494,0,0.877,0.431,0.819,0.922l-0.317,2.668
							C469.235,334.647,468.883,334.959,468.466,334.959z"/>
						<polygon style="opacity:0.5;fill:#FFAA3F;" points="467.896,334.959 454.197,334.959 455.372,346.743 466.721,346.743 						
							"/>
					</g>
					<g>
						<g>
							<path style="fill:#F3E8E2;" d="M466.83,320.803v9.837h-8.946v-9.837c0-2.108,1.462-3.873,3.425-4.345
								c0.338-0.082,0.687-0.122,1.048-0.122c1.235,0,2.353,0.501,3.163,1.31C466.329,318.45,466.83,319.568,466.83,320.803z"/>
							<path style="opacity:0.5;fill:#FFAA3F;" d="M466.83,320.803v9.837h-2.103v-9.837c0-2.108-1.456-3.873-3.419-4.345
								c0.338-0.082,0.687-0.122,1.048-0.122c1.235,0,2.353,0.501,3.163,1.31C466.329,318.45,466.83,319.568,466.83,320.803z"/>
						</g>
						<g>
							<path style="fill:#F3E8E2;" d="M462.357,322.84v7.801h-7.094v-7.801c0-1.672,1.159-3.071,2.716-3.445
								c0.268-0.065,0.545-0.097,0.831-0.097c0.979,0,1.866,0.397,2.508,1.039C461.96,320.974,462.357,321.861,462.357,322.84z"/>
							<path style="opacity:0.5;fill:#FFAA3F;" d="M462.357,322.84v7.801h-1.667v-7.801c0-1.672-1.155-3.071-2.711-3.445
								c0.268-0.065,0.545-0.097,0.831-0.097c0.979,0,1.866,0.397,2.508,1.039C461.96,320.974,462.357,321.861,462.357,322.84z"/>
						</g>
					</g>
				</g>
			</g>
			<g>
				<g>
					<path style="fill:#56114A;" d="M398.905,394.917v37.468c0,0.383,0.31,0.693,0.693,0.693c0.383,0,0.693-0.31,0.693-0.693
						v-37.468c0-0.383-0.31-0.693-0.693-0.693C399.215,394.225,398.905,394.535,398.905,394.917"/>
					<path style="fill:#56114A;" d="M399.598,430.355c-1.122,0.001-2.03,0.909-2.03,2.03c0.001,1.122,0.909,2.03,2.03,2.03
						c1.122,0,2.03-0.908,2.03-2.03C401.628,431.264,400.72,430.355,399.598,430.355z M399.598,433.03
						c-0.356-0.001-0.644-0.289-0.645-0.645c0.001-0.356,0.289-0.644,0.645-0.645c0.356,0.001,0.644,0.289,0.645,0.645
						C400.242,432.741,399.954,433.029,399.598,433.03z"/>
					<path style="fill:#56114A;" d="M352.88,394.917v37.468c0,0.383,0.31,0.693,0.693,0.693c0.383,0,0.693-0.31,0.693-0.693v-37.468
						c0-0.383-0.31-0.693-0.693-0.693C353.19,394.225,352.88,394.535,352.88,394.917"/>
					<path style="fill:#56114A;" d="M353.573,430.355c-1.122,0.001-2.03,0.909-2.03,2.03c0,1.121,0.909,2.03,2.03,2.03
						c1.121,0,2.03-0.908,2.03-2.03C355.603,431.264,354.695,430.355,353.573,430.355z M353.573,433.03
						c-0.356-0.001-0.644-0.289-0.645-0.645c0.001-0.356,0.289-0.644,0.645-0.645c0.355,0.001,0.644,0.289,0.645,0.645
						C354.217,432.741,353.928,433.029,353.573,433.03z"/>
					<path style="fill:#56114A;" d="M367.513,420.074v37.468c0,0.383,0.31,0.693,0.693,0.693c0.383,0,0.693-0.31,0.693-0.693
						v-37.468c0-0.383-0.31-0.693-0.693-0.693C367.824,419.381,367.513,419.691,367.513,420.074"/>
					<path style="fill:#56114A;" d="M368.206,455.512c-1.122,0-2.03,0.909-2.03,2.03c0.001,1.122,0.909,2.03,2.03,2.03
						c1.121,0,2.03-0.908,2.03-2.03C370.236,456.42,369.328,455.512,368.206,455.512z M368.206,458.186
						c-0.356-0.001-0.644-0.289-0.645-0.645c0.001-0.356,0.289-0.644,0.645-0.645c0.356,0.001,0.644,0.289,0.645,0.645
						C368.85,457.898,368.562,458.186,368.206,458.186z"/>
					<path style="fill:#56114A;" d="M321.488,420.074v37.468c0,0.383,0.31,0.693,0.693,0.693c0.383,0,0.693-0.31,0.693-0.693
						v-37.468c0-0.383-0.31-0.693-0.693-0.693C321.798,419.381,321.488,419.691,321.488,420.074"/>
					<path style="fill:#56114A;" d="M322.181,455.512c-1.122,0-2.03,0.909-2.03,2.03c0,1.122,0.909,2.03,2.03,2.03
						c1.122,0,2.03-0.908,2.03-2.03C324.211,456.42,323.303,455.512,322.181,455.512z M322.181,458.186
						c-0.356-0.001-0.644-0.289-0.645-0.645c0.001-0.356,0.289-0.644,0.645-0.645c0.356,0.001,0.644,0.289,0.645,0.645
						C322.825,457.898,322.537,458.186,322.181,458.186z"/>
					<path style="fill:#56114A;" d="M399.656,418.606c-0.097-0.271-0.353-0.451-0.641-0.451h-45.313
						c-0.158,0-0.313,0.056-0.434,0.156l-30.84,25.509c-0.222,0.183-0.304,0.484-0.207,0.755c0.097,0.271,0.353,0.45,0.64,0.45
						h45.217c0.182,0,0.353-0.071,0.481-0.199c0.055-0.055,0.093-0.12,0.126-0.188l30.761-25.276
						C399.669,419.179,399.753,418.877,399.656,418.606z M367.727,443.664h-42.974l29.195-24.148h43.168L367.727,443.664z"/>
				</g>
				<g>
					<g>
						<path style="fill:#0C1A3C;" d="M416.61,317.851l-16.194,71.723l-43.167,0.001c-1.903-0.453-3.08-2.365-2.628-4.267
							l15.393-64.732c0.402-1.695,1.967-2.817,3.648-2.72L416.61,317.851z"/>
						<path style="fill:#346E94;" d="M400.417,389.525L400.417,389.525c-1.904-0.453-3.08-2.363-2.627-4.267l15.393-64.731
							c0.453-1.904,2.363-3.08,4.267-2.627l0,0c1.904,0.453,3.08,2.363,2.627,4.267l-15.394,64.731
							C404.23,388.801,402.32,389.977,400.417,389.525z"/>
					</g>
					<g>
						<path style="fill:#0C1A3C;" d="M396.22,387.882L366.92,421.06h-43.529c-0.24,0.042-0.48,0.065-0.72,0.065
							c-2.161,0-4.203-1.7-4.203-4.189c0-1.247,0.559-2.434,1.524-3.228l30.431-25.004c0.803-0.66,1.727-0.956,2.632-0.956
							c0.356,0,0.702,0.046,1.044,0.134H396.22z"/>
						<path style="fill:#346E94;" d="M369.501,420.168l30.428-25.002c0.966-0.794,1.527-1.979,1.527-3.23l0,0
							c0-3.531-4.107-5.472-6.835-3.23l-30.428,25.002c-0.966,0.794-1.527,1.979-1.527,3.23l0,0
							C362.666,420.469,366.773,422.41,369.501,420.168z"/>
					</g>
				</g>
			</g>
			<g>
				<g>
					<rect x="382.999" y="417.352" style="fill:#FFAA3F;" width="46.891" height="46.891"/>
					<polygon style="opacity:0.5;fill:#FFAA3F;" points="382.999,417.352 422.807,387.13 469.698,387.13 429.89,417.352 					"/>
					<polygon style="fill:#EC8120;" points="429.89,464.243 469.698,434.021 469.698,387.13 429.89,417.352 					"/>
					
						<line style="fill:none;stroke:#FFFFFF;stroke-width:0.703;stroke-linecap:round;stroke-linejoin:round;stroke-miterlimit:10;" x1="429.89" y1="417.352" x2="429.89" y2="464.243"/>
					
						<polyline style="fill:none;stroke:#FFFFFF;stroke-width:0.703;stroke-linecap:round;stroke-linejoin:round;stroke-miterlimit:10;" points="
						469.698,435.55 469.698,387.13 422.807,387.13 					"/>
				</g>
				<g>
					<g>
						<polygon style="fill:#0C1A3C;" points="402.746,411.68 424.904,394.858 447.525,394.858 425.367,411.68 						"/>
						<polygon style="fill:#346E94;" points="402.746,410.195 424.904,393.373 447.525,393.373 425.367,410.195 						"/>
						<path style="fill:#FFFFFF;" d="M409.423,406.745l15.65-11.881c0.481-0.365,1.069-0.563,1.673-0.563h15.735
							c0.334,0,0.477,0.424,0.211,0.626l-15.988,12.138c-0.342,0.26-0.76,0.401-1.19,0.401h-15.85
							C409.281,407.464,409.117,406.977,409.423,406.745z"/>
						<rect x="402.746" y="410.195" style="fill:#0C1A3C;" width="22.621" height="1.485"/>
						<path style="fill:#0C1A3C;" d="M416.31,408.862c-0.377,0.32-0.942,0.579-1.262,0.579s-0.273-0.259,0.104-0.579
							c0.377-0.32,0.942-0.579,1.262-0.579C416.734,408.283,416.688,408.542,416.31,408.862z"/>
					</g>
					<polygon style="fill:#0C1A3C;" points="447.525,393.373 447.525,394.858 425.367,411.68 425.367,410.195 					"/>
				</g>
				<g>
					<path style="fill:#0C1A3C;" d="M445.572,389.225c-0.046,0.055-0.092,0.106-0.143,0.162c-0.005,0.009-0.014,0.014-0.023,0.023
						c-0.004,0.009-0.009,0.014-0.018,0.019c-0.711,0.642-2.54,1.094-4.678,1.094c-2.143,0-3.972-0.453-4.683-1.094
						c-0.005-0.005-0.009-0.014-0.018-0.019c-0.06-0.069-0.12-0.134-0.18-0.203c-4.337-4.974-0.028-9.879-0.028-9.879l4.909,0.337
						l4.905-0.337C445.614,379.328,449.941,384.247,445.572,389.225z"/>
					<ellipse style="fill:#FFAA3F;" cx="440.708" cy="379.666" rx="5.005" ry="1.698"/>
					<path style="fill:#EC8120;" d="M444.548,379.666c0,0.579-1.719,1.048-3.841,1.048c-2.121,0-3.841-0.469-3.841-1.048
						c0-0.579,1.72-1.048,3.841-1.048C442.829,378.618,444.548,379.088,444.548,379.666z"/>
				</g>
			</g>
			<g>
				<path style="fill:#FFAA3F;" d="M385.013,275.28c-7.295-0.584-14.35,3.904-17.094,17.516
					c-2.744,13.612-7.07,33.871-12.135,44.318c-5.065,10.446,13.084,10.657,23.636,10.868s10.341-6.226,10.868-17.622
					c0.528-11.396,5.786-27.105,5.401-37.022C395.197,280.589,390.289,275.702,385.013,275.28z"/>
				<path style="fill:#EC8120;" d="M373.28,293.068c-3.313,10.438-6.18,15.21-6.18,15.21h10.208l3.159-14.147L373.28,293.068z"/>
				<g>
					<path style="fill:#F56D8E;" d="M376.217,367.953c0,0-51.371,30.394-61.998,31.872c-10.622,1.483-13.412-3.773-13.412-3.773
						c0.319-7.907,3.011-14.082,8.817-17.924c21.774-14.411,44.732-20.717,44.732-20.717
						C369.158,354.717,376.217,367.953,376.217,367.953z"/>
					<path style="fill:#D94C6E;" d="M369.064,366.226l-13.004-9.053c-0.557,0.058-1.122,0.131-1.704,0.237
						c0,0-8.496,2.337-20.046,7.406C352.719,363.48,369.064,366.226,369.064,366.226z"/>
					<path style="fill:#D94C6E;" d="M316.554,383.527c-6.338,2.26-9.494,8.442-10.939,15.846c2.026,0.644,4.808,0.981,8.604,0.451
						c8.838-1.229,45.853-22.456,58.066-29.568C369.849,369.262,341.569,374.609,316.554,383.527z"/>
					<g>
						<path style="fill:#93405C;" d="M381.367,387.129c-9.195,10.978-54.816,27.129-54.816,27.129s-2.6,16.991-11.389,27.877
							c-0.757,0.933-1.556,1.824-2.406,2.656c-10.729,10.493-11.671,19.453-11.671,19.453s-0.023,1.866-0.111,3.575
							c-0.055,1.113-0.134,2.161-0.254,2.582c-0.804,2.863-18.728,12.373-21.697,12.456c-2.974,0.083-1.159-5.362,3.958-11.468
							c0.069-0.083,0.139-0.161,0.203-0.245c4.96-5.948,6.891-9.158,6.891-9.158s2.785-12.179,6.175-25.545
							c3.478-13.735,7.588-28.717,9.948-33.031c4.66-8.507,37.649-25.886,47.598-32.431c9.944-6.549,15.338-11.712,15.338-11.712
							l16.363,2.531C385.496,361.797,390.562,376.155,381.367,387.129z"/>
						<path style="fill:#56114A;" d="M308.78,438.808c0,0-5.573,14.467-7.494,24.344c0.61-2.689,2.961-10.041,11.469-18.362
							c0.85-0.831,1.649-1.723,2.406-2.656c0.889-1.101,1.711-2.266,2.477-3.467L308.78,438.808z"/>
						<path style="fill:#FFAA3F;" d="M300.974,467.818c0.15,0.907,0.095,2.045-0.202,2.751
							c-1.702,4.053-18.679,12.688-21.749,12.287c-2.951-0.385-1.159-5.362,3.958-11.468c0.069-0.083,0.139-0.161,0.203-0.245
							c0.445,0.046,0.995,0.141,1.599,0.332c5.155,1.624,10.811,0.458,15.115-2.812C300.27,468.379,300.63,468.097,300.974,467.818z
							"/>
						<g>
							<path style="fill:#F56D8E;" d="M381.367,387.129c-9.195,10.978-54.816,27.129-54.816,27.129s-1.806,11.796-7.496,22.03
								c-1.132,2.046-2.429,4.032-3.893,5.847c-10.345,0.739-16.414-3.422-18.913-5.695c0.633-2.503,1.288-5.048,1.954-7.56
								c2.965-11.283,6.064-21.942,7.995-25.471c4.66-8.507,37.649-25.886,47.598-32.431c9.944-6.549,15.338-11.712,15.338-11.712
								l16.363,2.531C385.496,361.797,390.562,376.155,381.367,387.129z"/>
							<path style="fill:#D94C6E;" d="M317.658,438.627c0.331-0.52,0.649-1.046,0.957-1.578l-8.71-34.808l-4.097,1.941
								c-1.942,4.137-4.832,14.143-7.606,24.697c-0.149,0.563-0.295,1.13-0.443,1.695
								C305.417,436.281,314.289,438.112,317.658,438.627z"/>
							
								<path style="fill:none;stroke:#CB1C3E;stroke-width:0.4618;stroke-linecap:round;stroke-linejoin:round;stroke-miterlimit:10;" d="
								M379.85,368.689c0,0-2.771,11.854-29.096,23.092c-14.372,6.135-20.962,9.344-23.984,10.992
								c-1.53,0.835-2.791,2.076-3.648,3.594l-12.702,22.512"/>
							
								<path style="fill:none;stroke:#CB1C3E;stroke-width:0.4618;stroke-linecap:round;stroke-linejoin:round;stroke-miterlimit:10;" d="
								M375.386,366.226c0,0-2.856,3.942,2.19,6.82"/>
							
								<path style="fill:none;stroke:#CB1C3E;stroke-width:0.4618;stroke-linecap:round;stroke-linejoin:round;stroke-miterlimit:10;" d="
								M319.26,392.087c11.677-7.744,28.317-17.018,34.535-21.109c3.049-2.008,5.67-3.886,7.839-5.524
								c5.158-3.896,11.663-5.544,18.051-4.556l5.811,0.899"/>
							<path style="fill:#F3E8E2;" d="M319.055,436.287c-1.132,2.046-2.429,4.032-3.893,5.847
								c-10.345,0.739-16.414-3.422-18.913-5.695c0.367-2.41,0.962-4.934,1.954-7.56
								C301.232,431.743,307.901,436.588,319.055,436.287z"/>
						</g>
					</g>
					<g>
						<path style="fill:#93405C;" d="M319.632,473.323c-1.483-0.956-2.609-7.616-3.312-13.283c-0.55-4.429-0.84-8.253-0.84-8.253
							c-3.27-8.304-9.625-23.577-12.802-38.291c-0.212-0.979-0.411-1.954-0.591-2.924c-0.947-5.071-1.46-10.017-1.279-14.52
							c3.967-22.441,17.947-4.836,17.947-4.836c2.591,4.304,4.184,9.242,5.113,14.336c0.296,1.598,0.522,3.214,0.693,4.826
							c1.714,16.008-1.907,32.107-0.646,34.061c0.979,1.524,2.069,2.129,2.882,2.799c0.674,0.545,1.159,1.136,1.242,2.314
							C328.218,452.147,322.279,475.022,319.632,473.323z"/>
						<path style="fill:#FFAA3F;" d="M319.632,473.323c-1.483-0.956-2.609-7.616-3.312-13.283c0.642-0.572,1.262-0.967,1.839-1.235
							c3.469-1.614,6.077-4.664,7.484-8.222c0.525-1.329,0.895-2.457,1.152-3.345c0.828,0.424,1.281,1.159,1.422,2.331
							C328.71,453.647,322.279,475.022,319.632,473.323z"/>
						<path style="fill:#F56D8E;" d="M324.56,410.378c-7.597,3.33-16.871,3.298-21.882,3.118c-0.212-0.979-0.411-1.954-0.591-2.924
							c-0.673-3.603-1.251-7.182-1.464-10.568c-0.176-2.782,0.106-5.585,0.937-8.246c4.929-15.789,17.195-0.543,17.195-0.543
							c2.591,4.304,4.184,9.242,5.113,14.336C324.163,407.15,324.389,408.766,324.56,410.378z"/>
						
							<path style="fill:none;stroke:#CB1C3E;stroke-width:0.4618;stroke-linecap:round;stroke-linejoin:round;stroke-miterlimit:10;" d="
							M310.421,384.926c1.443,0.416,2.851,1.254,4.085,2.185c2.829,2.135,4.984,5.032,6.385,8.287
							c1.098,2.551,2.826,8.108,2.826,10.92"/>
						<path style="fill:#F3E8E2;" d="M324.56,410.378c-7.597,3.33-16.871,3.298-21.882,3.118c-0.46-0.834-0.828-2.959-0.828-4.244
							c10.526-0.074,18.337-1.811,22.017-3.7C324.163,407.15,324.389,408.766,324.56,410.378z"/>
					</g>
				</g>
				<g>
					<path style="fill:#93405C;" d="M364.131,309.229c0,0-7.952,0.922-10.045,7.593c-2.093,6.671-7.718,27.47-7.718,27.47
						s-14.781-13.997-18.051-15.305c-3.27-1.308-16.743-2.485-18.706-1.962c-1.962,0.523,4.84,3.009,4.84,3.009
						s-5.232-1.701-5.363,0.785c-0.131,2.485,1.962,7.064,4.448,7.718c2.485,0.654,11.642,1.047,11.642,1.047
						s11.642,22.761,23.153,22.761s18.313-53.108,18.313-53.108L364.131,309.229z"/>
					<path style="fill:#56114A;" d="M350.742,350.049c0,0-1.076-5.661-3.569-8.72c-0.438,1.606-0.728,2.679-0.791,2.91
						C349.533,347.262,350.742,350.049,350.742,350.049z"/>
					<path style="fill:#56114A;" d="M323.917,335.368c-6.678,0.513-9.762-3.07-9.762-3.07l3-5.25L323.917,335.368z"/>
					<g>
						<path style="fill:#0C1A3C;" d="M319.579,319.797c0,0-0.484,8.396-2.387,17.841c0,0.346-2.12,0.633-4.741,0.633
							c-2.615,0-4.741-0.286-4.741-0.633c-1.897-9.445-2.388-17.841-2.388-17.841H319.579z"/>
						<ellipse style="fill:#346E94;" cx="312.452" cy="319.795" rx="7.129" ry="0.948"/>
					</g>
					<path style="fill:#93405C;" d="M329.424,330.492c-0.632-3.701-12.007-5.326-15.347-5.055c-3.34,0.271,4.333,4.243,4.333,4.243
						s0.09,5.236,5.507,5.688C329.333,335.819,329.424,330.492,329.424,330.492z"/>
				</g>
				<g>
					<path style="fill:#93405C;" d="M399.481,305.553c0,0-7.519,22.709-8.531,30.297c-1.011,7.593-4.554,28.14-4.554,28.14
						c-18.118,2.125-33.807-4.35-33.807-4.35c2.531-4.762,3.847-13.768,3.847-13.768s-3.575-6.332-3.981-11.999
						c-0.402-5.672,4.272-9.422,7.509-14.885c3.238-5.464,4.166-9.759,4.166-9.759c0.942-0.222,1.958-0.563,2.97-0.951
						c3.556-1.376,7.048-3.399,7.048-3.399l1.834-8.733l11.934,1.852l-1.723,7.389l8.03,0.079L399.481,305.553z"/>
					<path style="fill:#56114A;" d="M388.705,305.412l-2.512-0.025l1.723-7.389l-11.683-1.813c-0.155,0.967-0.251,1.969-0.273,2.996
						c-0.162,7.554,3.411,10.478,8.204,10.153C386.062,309.205,387.547,307.613,388.705,305.412z"/>
					<path style="fill:#439DA3;" d="M399.481,305.553c0,0-7.519,22.709-8.531,30.297c-1.011,7.593-4.554,28.14-4.554,28.14
						c-18.118,2.125-33.807-4.35-33.807-4.35c2.531-4.762,3.847-13.768,3.847-13.768s-3.575-6.332-3.981-11.999
						c-0.402-5.672,4.272-9.422,7.509-14.885c3.238-5.464,4.166-9.759,4.166-9.759c0.942-0.222,1.958-0.563,2.97-0.951
						c-1.011,2.891-1.977,6.914-0.24,8.341c2.836,2.328,17.005,3.242,20.446,1.418c2.383-1.261,5.615-9.587,6.917-12.571
						L399.481,305.553z"/>
					<path style="fill:#378085;" d="M378.079,364.413c0.547-7.176-2.169-15.768-9.245-16.886
						c-8.571-1.354-15.013-7.578-16.379-13.653c0.407,5.667,3.981,11.999,3.981,11.999s-1.316,9.006-3.847,13.768
						C352.589,359.64,363.731,364.237,378.079,364.413z"/>
				</g>
				<g>
					<path style="fill:#93405C;" d="M399.481,305.553c9.875-0.606,10.379,13.098,6.964,28.431
						c-3.415,15.332-3.703,28.161-20.091,30.435c-8.861,1.229-19.064,0.431-20.434,0.315c-0.096-0.008-0.18,0.041-0.22,0.128
						c-0.495,1.071-3.704,7.896-5.713,9.403c-2.182,1.636-5.864,4.636-7.159,4.432c-1.295-0.205-3.341-1.432-3.613-1.773
						c-0.115-0.144-0.06-0.847,0.042-1.612c0.071-0.531-0.597-0.823-0.941-0.411c-0.629,0.753-1.349,1.438-1.828,1.342
						c-1.023-0.205,1.704-7.364,2.454-8.863c0.75-1.5,8.318-7.568,9.613-8.386c1.288-0.814,18.263-7.882,28.352-9.343
						c0.103-0.015,0.178-0.09,0.189-0.193C387.402,346.508,391.746,306.028,399.481,305.553z"/>
					<path style="fill:#56114A;" d="M363.459,356.843c-2.661,1.072-4.512,1.9-4.904,2.148c-1.099,0.694-6.697,5.156-8.832,7.413
						l-0.781,0.973c0,0,5.447-5.152,14.047-8.112L363.459,356.843z"/>
					<path style="fill:#56114A;" d="M365.238,357.987c8.167,0.227,14.612,0.81,19.121-4.275c1.131-1.276,1.146-2.418,0.272-3.664
						c-6.713,1.351-15.395,4.48-20.872,6.674L365.238,357.987z"/>
					<path style="fill:#0C1A3C;" d="M362.666,358.131c0,0,2.701,1.223,3.259,5.647c0.086,0.685,0.642,1.218,1.331,1.256l1.329,0.073
						c0.288,0.016,0.518-0.233,0.473-0.518c-0.24-1.518-1.172-5.816-4.237-8.073L362.666,358.131z"/>
					<path style="fill:#F3E8E2;" d="M366.405,357.339c0.237,0.816-0.571,1.769-1.805,2.127c-1.234,0.358-2.426-0.013-2.663-0.83
						c-0.237-0.816,0.571-1.769,1.805-2.127C364.976,356.151,366.168,356.522,366.405,357.339z"/>
				</g>
				<path style="fill:#FFAA3F;" d="M389.481,288.134c0,0-0.08,11.915-6.557,20.152c-6.477,8.237-16.473,23.51-17.113,34.466
					c-0.64,10.956,5.598,13.914,9.116,14.554c3.518,0.64,13.275-1.28,14.234-16.873c0.96-15.594,5.278-31.507,6.318-41.423
					c1.039-9.916-1.919-15.354-4.878-17.353S389.161,282.696,389.481,288.134z"/>
				<path style="fill:#EC8120;" d="M388.331,296.454c-0.904,3.754-2.518,8.158-5.408,11.832
					c-6.477,8.237-16.473,23.51-17.113,34.466c-0.64,10.956,5.598,13.914,9.116,14.554c3.266,0.594,11.899-1.025,13.892-13.726
					c-0.072-0.179-13.788,4.551-4.898-16.746c8.89-21.297,8.041-35.794,8.041-35.794S390.581,293.051,388.331,296.454z"/>
				<g>
					<path style="fill:#93405C;" d="M386.519,282.999c-6.581-0.637-10.397,5.686-10.559,13.239
						c-0.163,7.554,4.045,10.694,8.204,10.153c5.075-0.66,7.586-9.51,7.797-15.351C392.16,285.542,389.037,283.243,386.519,282.999z
						"/>
					<path style="fill:#93405C;" d="M375.679,291.901c0,0,0-3.249-2.437-2.68c-2.437,0.569-1.3,5.848,1.381,6.742
						C377.304,296.856,375.679,291.901,375.679,291.901z"/>
					<path style="fill:#FFAA3F;" d="M376.167,293.638l0.109-0.694c0.381-2.413,2.025-4.403,4.284-5.335
						c1.328-0.548,2.759-1.43,3.791-2.849c0.527-0.725,1.626-0.645,1.966,0.185c0.839,2.044,2.438,4.654,5.282,5.413
						c4.873,1.3,0.487-11.29-6.66-11.615C377.791,278.418,371.943,282.673,376.167,293.638z"/>
				</g>
			</g>
		</g>
		<g>
			<g>
				<g>
					<g>
						<path style="fill:#0C1A3C;" d="M220.648,452.53h-4.467c-4.994,0-9.043-4.049-9.043-9.043v-38.141
							c0-1.228,0.996-2.224,2.224-2.224l0,0c1.062,0,1.923-0.861,1.923-1.923v-1.412h-15.484v1.412c0,1.062,0.861,1.923,1.923,1.923
							l0,0c1.228,0,2.224,0.996,2.224,2.224v38.141c0,4.994-4.049,9.043-9.043,9.043h-4.466c-2.988,0-5.41,2.422-5.41,5.41h45.03
							C226.058,454.952,223.636,452.53,220.648,452.53z"/>
						<g>
							<path style="fill:#0C1A3C;" d="M209.031,462.945c0,3.031-2.457,5.488-5.488,5.488c-3.031,0-5.488-2.457-5.488-5.488
								c0-3.031,2.457-5.488,5.488-5.488C206.574,457.457,209.031,459.914,209.031,462.945z"/>
							<path style="fill:#0C1A3C;" d="M231.546,462.945c0,3.031-2.457,5.488-5.488,5.488c-3.031,0-5.488-2.457-5.488-5.488
								c0-3.031,2.457-5.488,5.488-5.488C229.089,457.457,231.546,459.914,231.546,462.945z"/>
							<path style="fill:#0C1A3C;" d="M186.516,462.945c0,3.031-2.457,5.488-5.488,5.488c-3.031,0-5.488-2.457-5.488-5.488
								c0-3.031,2.457-5.488,5.488-5.488C184.059,457.457,186.516,459.914,186.516,462.945z"/>
						</g>
					</g>
					<g>
						<path style="fill:#0C1A3C;" d="M207.952,373.037v0.005c0,1.318-1.068,2.385-2.385,2.385h-16.134
							c-5.012,0-9.075,4.063-9.075,9.075v11.359c0,1.317-1.068,2.385-2.385,2.385l0,0c-1.318,0-2.385-1.068-2.385-2.385v-11.574
							c0-7.531,6.105-13.636,13.636-13.636h16.345C206.884,370.651,207.952,371.719,207.952,373.037z"/>
						<g>
							<path style="fill:#0C1A3C;" d="M203.815,400.636H166.24c-3.434,0.5-6.217-2.284-6.217-5.717l0,0
								c0-3.434,2.783-6.217,6.217-6.217h37.575c3.434,0,6.217,2.784,6.217,6.217l0,0
								C210.032,398.352,207.249,401.136,203.815,400.636z"/>
							<path style="fill:#0C1A3C;" d="M232.567,400.636h-28.62c-3.434,0-6.217-2.784-6.217-6.217l0,0
								c0-3.434,2.783-6.217,6.217-6.217h28.62c3.434,0,6.217,2.784,6.217,6.217l0,0
								C238.784,397.852,236.001,400.636,232.567,400.636z"/>
						</g>
						<g>
							<path style="fill:#0C1A3C;" d="M243.295,315.514h-33.263l-0.001,0.003c-3.095-0.105-5.853,2.108-6.346,5.244l-9.558,60.832
								c-0.533,3.392,1.785,6.574,5.177,7.107c0.656,0.103,1.303,0.097,1.925,0h31.902L243.295,315.514z"/>
							<path style="fill:#346E94;" d="M227.39,381.594l9.559-60.832c0.533-3.392,3.715-5.71,7.107-5.177l0,0
								c3.392,0.533,5.71,3.715,5.177,7.107l-9.558,60.833c-0.533,3.392-3.715,5.71-7.107,5.177l0,0
								C229.175,388.168,226.857,384.986,227.39,381.594z"/>
						</g>
					</g>
				</g>
				<g>
					<g>
						<g>
							<g>
								<path style="fill:#FFAA3F;" d="M154.161,458.374c0,0-13.767,7.249-29.635,1.942c-0.603-0.202-0.751-0.983-0.244-1.367
									c0.301-0.228,0.657-0.5,1.063-0.814c2.532-1.951,7.026-5.566,12.464-10.568c0,0,6.074,1.809,15.66,2.839l0.663,6.638
									L154.161,458.374z"/>
								<path style="fill:#0C1A3C;" d="M154.161,458.374c0,0-13.146,8.228-29.736,1.961c-0.571-0.216-0.676-0.983-0.19-1.35
									c0.311-0.235,0.682-0.518,1.11-0.85c10.483,3.724,23.935,0.278,28.7-1.967L154.161,458.374z"/>
							</g>
							<g>
								<path style="fill:#346E94;" d="M159.094,408.31c-2.087,10.973-4.004,31.133-4.738,39.386
									c-0.114,1.285-0.199,2.28-0.251,2.907c-0.038,0.457-0.368,0.841-0.814,0.948c-10.836,2.597-17.303-0.675-19.072-1.771
									c-0.313-0.194-0.505-0.524-0.519-0.891c-0.02-0.526-0.053-1.406-0.094-2.574c-0.369-10.756-1.307-45.903,1.852-52.558
									c3.741-7.879,45.141-24.575,45.141-24.575c16.959,2.669,36.056-1.067,36.056-1.067
									C218.525,391.753,159.094,408.31,159.094,408.31z"/>
								<path style="opacity:0.3;fill:#185177;" d="M178.586,375.03c0,0-26.328,8.516-35.725,21.007
									c-8.111,10.783-0.386,46.817,1.879,56.473c2.454,0.06,5.297-0.18,8.543-0.957c0.449-0.108,0.783-0.495,0.822-0.955
									c0.053-0.628,0.137-1.621,0.251-2.901c0.734-8.253,2.651-28.413,4.738-39.386c0,0,18.813-5.241,34.937-14.036
									L178.586,375.03z"/>
								<path style="fill:#0C1A3C;" d="M154.356,447.696c-0.113,1.281-0.198,2.275-0.251,2.902c-0.039,0.46-0.371,0.846-0.82,0.954
									c-10.833,2.595-17.299-0.677-19.067-1.772c-0.313-0.194-0.505-0.524-0.519-0.891c-0.02-0.526-0.053-1.406-0.094-2.574
									C137.217,447.465,145.369,449.461,154.356,447.696z"/>
							</g>
						</g>
						<g>
							<g>
								<path style="fill:#FFAA3F;" d="M191.28,445.438c0,0-2.417,15.535-16.333,25.094c-0.432,0.296-1.022-0.019-1.025-0.543
									c-0.003-0.421-0.009-0.945-0.021-1.566c-0.047-2.734-0.217-7.346-0.747-13.221c-0.157-1.735,0.876-3.352,2.512-3.949
									c2.828-1.032,7.324-3.122,11.292-6.947c0.67-0.646,1.707-0.723,2.467-0.185l0.77,0.545L191.28,445.438z"/>
								<path style="fill:#0C1A3C;" d="M191.28,445.438c0,0-1.625,15.806-16.33,25.092c-0.444,0.28-1.024-0.019-1.027-0.544
									c-0.003-0.42-0.009-0.943-0.021-1.563c9.242-6.193,14.516-18.829,16.294-23.757L191.28,445.438z"/>
							</g>
							<g>
								<path style="fill:#346E94;" d="M172.585,407.109c6.974,10.267,13.726,24.995,16.705,31.807
									c0.627,1.438,1.088,2.523,1.347,3.139c0.154,0.367,0.126,0.786-0.08,1.127c-5.239,8.645-14.695,11.683-17.295,12.375
									c-0.425,0.113-0.865-0.019-1.165-0.34c-0.712-0.761-1.567-1.768-2.527-2.986c-9.717-12.225-30.454-45.298-24.63-55.403
									c6.544-11.352,41.132-24.977,41.132-24.977l39.132-7.879C231.743,396.963,172.585,407.109,172.585,407.109z"/>
								
									<path style="fill:none;stroke:#185177;stroke-width:0.6978;stroke-linecap:round;stroke-linejoin:round;stroke-miterlimit:10;" d="
									M155.905,431.882c-7.196-12.803-14.355-29.171-10.966-35.053c4.833-8.384,24.964-18.008,35.159-22.467"/>
								<g>
									
										<path style="fill:none;stroke:#185177;stroke-width:0.6978;stroke-linecap:round;stroke-linejoin:round;stroke-miterlimit:10;" d="
										M210.743,377.408c0,0-50.607,25.621-50.359,26.322c0.249,0.701,22.207,40.035,22.207,40.035"/>
									
										<path style="fill:none;stroke:#185177;stroke-width:0.6978;stroke-linecap:round;stroke-linejoin:round;stroke-miterlimit:10;" d="
										M208.905,373.537c0,0-3.781,1.888-2.739,6.193"/>
									
										<path style="fill:none;stroke:#185177;stroke-width:0.6978;stroke-linecap:round;stroke-linejoin:round;stroke-miterlimit:10;" d="
										M169.809,406.509c0,0-6.813-3.32-18.078-4.277"/>
								</g>
								<path style="fill:#0C1A3C;" d="M190.557,443.182c-5.239,8.645-14.695,11.683-17.295,12.375
									c-0.425,0.113-0.865-0.019-1.165-0.34c-0.712-0.761-1.567-1.768-2.527-2.986c3.676-1.201,13.772-5.103,19.721-13.315
									c0.627,1.438,1.088,2.523,1.347,3.139C190.791,442.422,190.763,442.842,190.557,443.182z"/>
							</g>
						</g>
						<g>
							<g>
								<path style="fill:#FFAA3F;" d="M160.009,348.605c0-0.478,5.223-33.497,10.801-39.235s14.582-5.418,15.778,6.056
									c1.195,11.475-7.613,46.805-13.351,49.514C167.5,367.65,160.009,348.605,160.009,348.605z"/>
								<path style="fill:#EC8120;" d="M169.809,320.078c-3.404,16.459-4.228,35.993-4.228,35.993s0.41,4.313,3.098,7.391
									c1.532,1.449,3.101,2.167,4.558,1.479c0.731-0.345,1.512-1.222,2.316-2.513c2.911-4.673,3.714-10.362,2.462-15.724
									C175.07,334.086,169.809,320.078,169.809,320.078z"/>
								<path style="fill:#0C1A3C;" d="M154.272,352.749c0,0,0.717-4.622,5.498-5.498c4.781-0.877,15.656,6.617,15.816,14.187
									c0.159,7.57-8.335,9.115-14.227,5.074C155.467,362.471,154.272,352.749,154.272,352.749z"/>
							</g>
							<path style="fill:#FF8B61;" d="M119.695,363.09c-1.399-0.484,2.713-7.208,6.433-9.843c3.72-2.635,18.679-3.72,31.158-0.93
								c12.479,2.79,13.951,11.936,10.696,13.719c-3.255,1.783-20.074-0.31-32.785-7.867c0,0-2.529,3.761-4.777,4.458
								c-2.248,0.698-5.764-2.094-5.764-2.094S121.71,363.788,119.695,363.09z"/>
							<path style="fill:#F1624F;" d="M135.197,358.169c0,0-3.948,3.056-6.307,2.243c-2.359-0.813-3.557-1.225-4.233,0.121
								c0,0,3.516,2.792,5.764,2.094C132.667,361.93,135.197,358.169,135.197,358.169z"/>
							<path style="fill:#F1624F;" d="M157.286,352.317c-0.899-0.201-1.811-0.379-2.731-0.541c0.15,0.048,9.612,3.134,11.889,8.779
								c1.062,2.634,0.813,4.563,0.242,5.884c0.545-0.098,0.984-0.233,1.295-0.404C171.237,364.253,169.764,355.107,157.286,352.317
								z"/>
						</g>
						<path style="fill:#FFAA3F;" d="M176.217,306.045c-7.948,4.377-6.572,22.612-5.802,33.137
							c0.77,10.525,7.809,30.213,7.809,30.213s9.548,7.479,26.442,3.74c16.894-3.74,22.943-10.009,22.943-10.009
							s-3.85-40.696-14.739-51.475C201.982,300.871,191.588,297.58,176.217,306.045z"/>
						<path style="fill:#EC8120;" d="M216.993,325.002c-20.168-1.463-24.503,44.694-24.866,49.033
							c3.557,0.316,7.752,0.159,12.538-0.901c10.825-2.396,17.192-5.829,20.373-7.987
							C223.741,345.825,216.993,325.002,216.993,325.002z"/>
						
							<path style="fill:none;stroke:#D98609;stroke-width:0.7484;stroke-linecap:round;stroke-linejoin:round;stroke-miterlimit:10;" d="
							M172.031,311.142c-3.15,7.419-2.564,25.264-0.46,37.645"/>
						<path style="fill:#F3E8E2;" d="M177.266,314.461c0,0-0.745-13.406,11.104-15.166c11.849-1.76,8.328,9.885,4.604,14.828
							c0,0-4.335-3.379-9.073,0.813C183.901,314.935,179.906,310.331,177.266,314.461z"/>
						<g>
							<path style="fill:#FF8B61;" d="M180.651,302.545l2.234,10.614c0,0,5.582,1.723,9.146-10.404
								c0.106-0.361,0.09-0.754-0.042-1.106l-3.029-8.091L180.651,302.545z"/>
							<path style="fill:#F1624F;" d="M181.919,308.565c0.518-0.086,1.044-0.213,1.586-0.431c3.648-1.467,6.979-6.261,3.957-12.954
								l-6.81,7.366L181.919,308.565z"/>
							<path style="fill:#FF8B61;" d="M175.912,279.593c-7.315,2.438-7.177,8.125-4.198,14.489
								c2.979,6.364,7.377,11.855,13.135,9.539c5.758-2.316,4.577-16.512,1.848-19.965
								C183.969,280.202,179.974,278.239,175.912,279.593z"/>
							<path style="fill:#0C1A3C;" d="M187.425,289.006l-1.732,1.223c0,0-0.102-2.072-1.902-2.922
								c-0.914-0.431-1.452-1.432-1.76-2.313c-0.326-0.932-1.336-1.44-2.258-1.087c-0.961,0.368-2.231,0.999-3.66,2.075
								c-3.159,2.378-10.327,2.65-12.501-2.174c-2.174-4.824,2.344-8.697,7.508-7.44s12.753-3.18,17.841,2.792
								c5.089,5.972,0.605,17.013,0.605,17.013L187.425,289.006z"/>
							<path style="fill:#FF8B61;" d="M186.508,288.395c0,0,0.557-2.174,2.453-2.242c1.895-0.068,2.269,4.144-0.313,5.911
								C186.066,293.83,186.508,288.395,186.508,288.395z"/>
						</g>
						<g>
							<path style="fill:#346E94;" d="M181.804,313.267c0,0,2.008-0.822,4.618-0.9c0,0-0.742,4.692-1.097,5.284
								c-0.355,0.591-2.602,0.828-2.839,0.71C182.25,318.242,181.438,313.616,181.804,313.267z"/>
							<g>
								<path style="fill:#0C1A3C;" d="M187.313,340.452c0.005,1.598-0.028,3.214-0.115,4.831c-0.074,1.446-0.194,2.882-0.36,4.304
									c-0.06,0.54-0.129,1.076-0.208,1.612l-4.979,3.104l-1.007-1.136l-2.397-2.711l-0.212-0.235c0,0,0.49-1.995,1.159-5.076
									c0.296-1.367,0.628-2.947,0.97-4.66c0.333-1.677,0.67-3.482,0.993-5.339c0.259-1.482,0.508-3.002,0.73-4.521
									c0.254-1.737,0.476-3.464,0.651-5.136c0.152-1.492,0.268-2.937,0.328-4.29c0.042-0.993,0.055-1.935,0.032-2.813
									c0-0.185-0.005-0.365-0.014-0.545c0,0,1.34-0.402,2.042-0.457c0,0,0.037,0.18,0.106,0.522
									c0.078,0.402,0.199,1.03,0.342,1.843c0.175,0.988,0.383,2.263,0.6,3.75c0.194,1.321,0.393,2.813,0.573,4.434
									c0.139,1.228,0.268,2.526,0.379,3.879c0.12,1.473,0.222,3.016,0.291,4.595C187.272,337.731,187.309,339.085,187.313,340.452
									z"/>
								<g>
									<path style="fill:#346E94;" d="M185.974,323.497l-3.436,1.991c0.152-1.492,0.268-2.937,0.328-4.29l2.508-1.45
										C185.549,320.735,185.757,322.01,185.974,323.497z"/>
									<path style="fill:#346E94;" d="M186.925,331.81l-5.768,3.335c0.259-1.482,0.508-3.002,0.73-4.521l4.66-2.693
										C186.685,329.159,186.814,330.457,186.925,331.81z"/>
									<path style="fill:#346E94;" d="M187.313,340.452l-8.119,4.692c0.296-1.367,0.628-2.947,0.97-4.66l7.052-4.078
										C187.272,337.731,187.309,339.085,187.313,340.452z"/>
									<path style="fill:#346E94;" d="M187.198,345.282c-0.074,1.446-0.194,2.882-0.36,4.304l-6.193,3.579l-2.397-2.711
										L187.198,345.282z"/>
								</g>
							</g>
						</g>
					</g>
					<g>
						<g>
							<path style="fill:#FFAA3F;" d="M192.325,348.605c0-0.478,3.187-26.057,8.765-31.794c5.578-5.737,14.582-5.419,15.778,6.056
								c1.195,11.475-5.578,39.364-11.315,42.073C199.815,367.65,192.325,348.605,192.325,348.605z"/>
							
								<path style="fill:none;stroke:#D98609;stroke-width:0.7484;stroke-linecap:round;stroke-linejoin:round;stroke-miterlimit:10;" d="
								M192.325,348.605c1.188-7.77,4.641-27.552,8.765-31.794c5.578-5.737,14.582-5.419,15.778,6.056
								c0.932,8.949-2.796,30.299-10.374,41.922"/>
							<path style="fill:#0C1A3C;" d="M187.014,354.998c-0.565-2.418,0.212-5.026,2.195-6.519c0.74-0.557,1.681-1.01,2.876-1.229
								c4.781-0.877,14.981,6.215,15.14,13.785c0.159,7.57-7.659,9.516-13.551,5.475
								C189.568,363.695,187.743,358.119,187.014,354.998z"/>
						</g>
						<path style="fill:#FF8B61;" d="M152.011,363.09c-1.399-0.484,2.713-7.208,6.433-9.843c3.72-2.635,18.679-3.72,31.157-0.93
							c12.479,2.79,13.951,11.936,10.696,13.719c-3.255,1.783-20.074-0.31-32.785-7.867c0,0-1.705,4.844-3.953,5.542
							c-2.248,0.698-6.588-3.178-6.588-3.178S154.026,363.788,152.011,363.09z"/>
						<path style="fill:#F1624F;" d="M189.601,352.317c-0.752-0.168-1.513-0.321-2.28-0.462c-0.001,0-0.008,0-0.008,0
							s8.804,2.284,11.135,8.545c1.213,3.257,0.745,5.097,0.019,6.12c0.8-0.099,1.422-0.261,1.83-0.485
							C203.553,364.253,202.08,355.107,189.601,352.317z"/>
						
							<path style="fill:none;stroke:#D23D1E;stroke-width:0.6978;stroke-linecap:round;stroke-linejoin:round;stroke-miterlimit:10;" d="
							M160.988,352.458c-4.208,0.496-10.377,10.148-8.978,10.633c2.015,0.698,4.96-2.558,4.96-2.558s4.34,3.875,6.588,3.178
							c2.248-0.698,3.953-5.542,3.953-5.542"/>
					</g>
					<path style="fill:#0C1A3C;" d="M239.811,373.037v0.005c0,1.318-1.068,2.385-2.385,2.385h-16.135
						c-5.012,0-9.075,4.063-9.075,9.075v9.916c0,1.317-1.068,2.385-2.385,2.385l0,0c-1.317,0-2.385-1.068-2.385-2.385v-10.131
						c0-7.531,6.105-13.636,13.636-13.636h16.345C238.743,370.651,239.811,371.719,239.811,373.037z"/>
				</g>
			</g>
			<g>
				<g>
					<g>
						<rect x="25.776" y="302.594" style="fill:#F3E8E2;" width="80.361" height="53.112"/>
						
							<rect x="106.137" y="302.594" transform="matrix(-1 -1.224647e-16 1.224647e-16 -1 214.7561 658.3004)" style="fill:#185177;" width="2.482" height="53.112"/>
						<path style="fill:#0C1A3C;" d="M69.725,330.998h-7.538c-2.292,0-4.151-1.858-4.151-4.151v-2.167
							c0-2.292,1.858-4.151,4.151-4.151h7.538c2.292,0,4.151,1.858,4.151,4.151v2.167C73.876,329.139,72.018,330.998,69.725,330.998
							z"/>
						<rect x="34.474" y="349.548" style="fill:#0C1A3C;" width="15.087" height="2.078"/>
						<g>
							<path style="fill:#0C1A3C;" d="M83.93,351.627h-2.155c-0.574,0-1.039-0.465-1.039-1.039l0,0c0-0.574,0.465-1.039,1.039-1.039
								h2.155c0.574,0,1.039,0.465,1.039,1.039l0,0C84.969,351.161,84.504,351.627,83.93,351.627z"/>
							<path style="fill:#0C1A3C;" d="M91.82,351.627h-2.155c-0.574,0-1.039-0.465-1.039-1.039l0,0c0-0.574,0.465-1.039,1.039-1.039
								h2.155c0.574,0,1.039,0.465,1.039,1.039l0,0C92.859,351.161,92.394,351.627,91.82,351.627z"/>
						</g>
					</g>
					<g>
						<g>
							<polygon style="fill:#0C1A3C;" points="68.98,372.478 55.57,372.478 59.194,348.238 72.604,348.238 							"/>
							<polygon style="fill:#185177;" points="67.231,372.478 53.821,372.478 57.445,348.238 70.855,348.238 							"/>
							
								<line style="fill:none;stroke:#FFFFFF;stroke-width:0.703;stroke-linecap:round;stroke-linejoin:round;stroke-miterlimit:10;" x1="57.445" y1="348.238" x2="70.855" y2="348.238"/>
							<path style="fill:#F3E8E2;" d="M67.165,354.519c-0.255,1.792-1.914,3.244-3.706,3.244s-3.038-1.453-2.783-3.244
								c0.255-1.792,1.914-3.244,3.706-3.244C66.174,351.275,67.42,352.728,67.165,354.519z"/>
						</g>
						<g>
							<rect x="46.847" y="372.478" style="fill:#185177;" width="24.386" height="2.901"/>
							
								<line style="fill:none;stroke:#FFFFFF;stroke-width:0.703;stroke-linecap:round;stroke-linejoin:round;stroke-miterlimit:10;" x1="46.847" y1="372.405" x2="65.57" y2="372.405"/>
							<rect x="71.233" y="372.478" style="fill:#0C1A3C;" width="6.596" height="2.901"/>
						</g>
					</g>
				</g>
				<g>
					<g>
						<g>
							<rect x="110.158" y="370.708" style="fill:#0C1A3C;" width="1.53" height="1.697"/>
							<rect x="111.688" y="370.708" style="fill:#185177;" width="2.405" height="2.11"/>
						</g>
					</g>
					<g>
						<g>
							<rect x="113.904" y="370.708" style="fill:#0C1A3C;" width="1.53" height="1.697"/>
							<rect x="115.434" y="370.708" style="fill:#185177;" width="2.406" height="2.11"/>
						</g>
					</g>
					<g>
						<g>
							<rect x="117.65" y="370.708" style="fill:#0C1A3C;" width="1.53" height="1.697"/>
							<rect x="119.18" y="370.708" style="fill:#185177;" width="2.406" height="2.11"/>
						</g>
					</g>
					<g>
						<g>
							<rect x="121.396" y="370.708" style="fill:#0C1A3C;" width="1.53" height="1.697"/>
							<rect x="122.927" y="370.708" style="fill:#185177;" width="2.406" height="2.11"/>
						</g>
					</g>
					<g>
						<g>
							<rect x="125.143" y="370.708" style="fill:#0C1A3C;" width="1.53" height="1.697"/>
							<rect x="126.673" y="370.708" style="fill:#185177;" width="2.406" height="2.11"/>
						</g>
					</g>
					<g>
						<g>
							<rect x="128.889" y="370.708" style="fill:#0C1A3C;" width="1.53" height="1.697"/>
							<rect x="130.419" y="370.708" style="fill:#185177;" width="2.406" height="2.11"/>
						</g>
					</g>
					<g>
						<g>
							<rect x="132.635" y="370.708" style="fill:#0C1A3C;" width="1.53" height="1.697"/>
							<rect x="134.166" y="370.708" style="fill:#185177;" width="2.405" height="2.11"/>
						</g>
					</g>
					<g>
						<g>
							<rect x="136.382" y="370.708" style="fill:#0C1A3C;" width="1.53" height="1.798"/>
							<rect x="137.912" y="370.708" style="fill:#185177;" width="2.406" height="2.11"/>
						</g>
					</g>
					<g>
						<g>
							<rect x="140.128" y="370.708" style="fill:#0C1A3C;" width="1.53" height="1.798"/>
							<rect x="141.658" y="370.708" style="fill:#185177;" width="2.406" height="2.11"/>
						</g>
					</g>
					<g>
						<path style="fill:#185177;" d="M135.541,375.425h-29.472l0,0c0-1.668,1.352-3.021,3.021-3.021h26.451V375.425z"/>
						<path style="fill:#0C1A3C;" d="M148.144,375.425h-16.055l0,0c0-1.668,1.352-3.021,3.021-3.021h10.014
							C146.792,372.405,148.144,373.757,148.144,375.425L148.144,375.425z"/>
					</g>
				</g>
				<g>
					<path style="fill:#0C1A3C;" d="M101.632,370.813v4.568H87.777c0-0.499,0.046-0.993,0.143-1.464
						c0.296-1.533,1.044-2.9,2.101-3.958c1.39-1.386,3.302-2.245,5.422-2.245h3.09C100.246,367.714,101.632,369.1,101.632,370.813z"
						/>
					
						<path style="fill:none;stroke:#FFFFFF;stroke-width:0.703;stroke-linecap:round;stroke-linejoin:round;stroke-miterlimit:10;" d="
						M91.992,373.915c0,0,0.5-6.299,7.496-6.701"/>
					<path style="fill:#185177;" d="M101.632,373.917v1.464H87.777c0-0.499,0.046-0.993,0.143-1.464H101.632z"/>
				</g>
				<g>
					<g>
						<rect x="27.876" y="379.436" style="fill:#EC8120;" width="78.194" height="84.471"/>
						<g>
							<rect x="22.678" y="375.379" style="fill:#EC8120;" width="83.391" height="4.056"/>
							
								<line style="fill:none;stroke:#FFFFFF;stroke-width:0.703;stroke-linecap:round;stroke-linejoin:round;stroke-miterlimit:10;" x1="22.678" y1="379.436" x2="106.069" y2="379.436"/>
						</g>
						<rect x="106.069" y="375.379" style="fill:#FFAA3F;" width="59.512" height="4.056"/>
						<rect x="106.069" y="377.408" style="fill:#FFAA3F;" width="54.315" height="86.499"/>
						
							<line style="fill:none;stroke:#FFFFFF;stroke-width:0.703;stroke-linecap:round;stroke-linejoin:round;stroke-miterlimit:10;" x1="113.178" y1="379.436" x2="157.52" y2="379.436"/>
					</g>
					<g>
						<path style="fill:#0C1A3C;" d="M33.425,468.434h-1.765c-1.162,0-2.103-0.942-2.103-2.103v-2.424h5.971v2.424
							C35.529,467.492,34.587,468.434,33.425,468.434z"/>
						<path style="fill:#0C1A3C;" d="M103.097,468.434h-1.764c-1.162,0-2.103-0.942-2.103-2.103v-2.424h5.971v2.424
							C105.201,467.492,104.259,468.434,103.097,468.434z"/>
						<path style="fill:#0C1A3C;" d="M154.566,468.434h-1.765c-1.161,0-2.103-0.942-2.103-2.103v-2.424h5.971v2.424
							C156.669,467.492,155.728,468.434,154.566,468.434z"/>
					</g>
				</g>
			</g>
		</g>
		<g>
			<g>
				<circle style="fill:#F3E8E2;" cx="433.01" cy="34.535" r="15.619"/>
				<circle style="opacity:0.5;fill:#FFAA3F;" cx="433.01" cy="34.535" r="12.265"/>
				<path style="opacity:0.5;fill:#FFAA3F;" d="M433.009,25.594c-0.276,0-0.5,0.224-0.5,0.5v8.233l-4.945,4.946
					c-0.195,0.195-0.195,0.512,0,0.707c0.098,0.098,0.226,0.147,0.353,0.147c0.128,0,0.256-0.049,0.354-0.147l5.092-5.093
					c0.094-0.094,0.146-0.221,0.146-0.353v-8.44C433.509,25.818,433.286,25.594,433.009,25.594z"/>
				<g>
					<path style="fill:#F3E8E2;" d="M435.3,34.535c0,1.265-1.026,2.291-2.29,2.291c-1.265,0-2.29-1.026-2.29-2.291
						s1.025-2.29,2.29-2.29C434.275,32.244,435.3,33.27,435.3,34.535z"/>
				</g>
			</g>
			<g>
				<rect x="344.687" y="148.992" style="fill:#EC8120;" width="1.456" height="65.191"/>
				<path style="fill:#EC8120;" d="M345.415,212.049c-1.178,0.001-2.133,0.955-2.134,2.133c0.001,1.178,0.955,2.133,2.134,2.133
					c1.178-0.001,2.133-0.955,2.133-2.133C347.548,213.004,346.593,212.05,345.415,212.049z"/>
				<rect x="368.308" y="148.992" style="fill:#EC8120;" width="1.456" height="65.191"/>
				<path style="fill:#EC8120;" d="M369.036,212.049c-1.179,0.001-2.133,0.955-2.133,2.133c0,1.178,0.955,2.133,2.133,2.133
					c1.178-0.001,2.133-0.955,2.133-2.133C371.169,213.004,370.215,212.05,369.036,212.049z"/>
				<rect x="345.415" y="195.417" style="fill:#EC8120;" width="23.621" height="1.456"/>
				
					<rect x="356.498" y="146.199" transform="matrix(0.8941 -0.4479 0.4479 0.8941 -39.4573 178.2777)" style="fill:#EC8120;" width="1.456" height="52.738"/>
				
					<rect x="330.856" y="171.84" transform="matrix(0.4479 -0.8941 0.8941 0.4479 42.935 414.6658)" style="fill:#EC8120;" width="52.738" height="1.456"/>
			</g>
			<g>
				<g>
					<polyline style="fill:#0C1A3C;" points="407.341,148.992 407.341,214.183 408.797,214.183 408.797,148.992 					"/>
					<polyline style="fill:#0C1A3C;" points="443.442,148.992 443.442,214.183 444.898,214.183 444.898,148.992 					"/>
					<polyline style="fill:#0C1A3C;" points="422.523,148.992 422.523,214.183 423.978,214.183 423.978,148.992 					"/>
					<polyline style="fill:#0C1A3C;" points="428.261,148.992 428.261,214.183 429.716,214.183 429.716,148.992 					"/>
					<g>
						<path style="fill:#0C1A3C;" d="M408.069,212.049c-1.178,0.001-2.133,0.955-2.133,2.133c0.001,1.178,0.955,2.133,2.133,2.133
							c1.178-0.001,2.132-0.955,2.133-2.133C410.202,213.004,409.247,212.05,408.069,212.049z"/>
						<path style="fill:#0C1A3C;" d="M444.17,212.049c-1.178,0.001-2.133,0.955-2.133,2.133c0.001,1.178,0.955,2.133,2.133,2.133
							c1.178-0.001,2.133-0.955,2.133-2.133C446.303,213.004,445.349,212.05,444.17,212.049z"/>
						<path style="fill:#0C1A3C;" d="M423.251,212.049c-1.178,0.001-2.133,0.955-2.133,2.133c0,1.178,0.955,2.133,2.133,2.133
							c1.178-0.001,2.133-0.955,2.133-2.133C425.383,213.004,424.429,212.05,423.251,212.049z"/>
						<path style="fill:#0C1A3C;" d="M428.988,212.049c-1.178,0.001-2.133,0.955-2.133,2.133c0.001,1.178,0.955,2.133,2.133,2.133
							c1.178-0.001,2.133-0.955,2.133-2.133C431.121,213.004,430.167,212.05,428.988,212.049z"/>
					</g>
					<path style="fill:#0C1A3C;" d="M444.17,193.16h-0.728c-0.001,0.02-0.003,0.042-0.024,0.089
						c-0.037,0.086-0.167,0.252-0.423,0.436c-0.444,0.326-1.235,0.688-2.277,1.009c-1.566,0.486-3.701,0.899-6.198,1.187
						c-2.498,0.288-5.36,0.452-8.4,0.452c-4.941,0.001-9.416-0.435-12.61-1.126c-1.595-0.343-2.872-0.756-3.691-1.176
						c-0.409-0.208-0.7-0.419-0.854-0.584c-0.078-0.082-0.122-0.15-0.143-0.196c-0.021-0.047-0.023-0.069-0.024-0.089
						c0.001-0.02,0.003-0.042,0.024-0.089c0.038-0.086,0.167-0.252,0.423-0.436c0.444-0.326,1.234-0.688,2.277-1.009
						c1.566-0.486,3.702-0.899,6.198-1.187c2.498-0.288,5.36-0.452,8.401-0.452c4.941-0.001,9.416,0.435,12.61,1.126
						c1.595,0.343,2.872,0.756,3.691,1.176c0.409,0.208,0.7,0.419,0.854,0.584c0.078,0.082,0.122,0.15,0.143,0.196
						c0.021,0.047,0.023,0.069,0.024,0.089H444.17h0.728c0.001-0.249-0.06-0.493-0.162-0.708c-0.194-0.406-0.507-0.718-0.885-0.994
						c-0.665-0.48-1.57-0.869-2.702-1.221c-1.696-0.525-3.901-0.946-6.462-1.242c-2.561-0.295-5.474-0.461-8.567-0.461
						c-5.028,0.001-9.578,0.438-12.917,1.159c-1.672,0.363-3.038,0.79-4.046,1.303c-0.504,0.259-0.923,0.537-1.249,0.88
						c-0.162,0.172-0.302,0.362-0.404,0.578c-0.102,0.215-0.163,0.459-0.162,0.708c-0.001,0.249,0.06,0.493,0.162,0.708
						c0.194,0.406,0.507,0.718,0.885,0.994c0.665,0.48,1.57,0.869,2.702,1.222c1.696,0.524,3.901,0.946,6.462,1.242
						c2.56,0.295,5.474,0.462,8.567,0.462c5.028-0.001,9.578-0.438,12.917-1.159c1.672-0.363,3.038-0.79,4.046-1.303
						c0.504-0.259,0.923-0.537,1.249-0.88c0.162-0.172,0.302-0.362,0.404-0.578c0.102-0.215,0.163-0.459,0.162-0.708H444.17z"/>
				</g>
				<g>
					<path style="fill:#0C1A3C;" d="M405.702,145.342v9.81c0,2.436,9.141,4.411,20.418,4.411c11.276,0,20.418-1.975,20.418-4.411
						v-9.81H405.702z"/>
					<ellipse style="fill:#185177;" cx="426.12" cy="145.342" rx="20.418" ry="4.411"/>
				</g>
			</g>
			<g>
				<g>
					<path style="fill:#FFAD91;" d="M365.059,122.594c0,0-10.328,3.735-15.088,11.132c-0.381,0.592,0.317,1.289,0.915,0.917
						c1.234-0.766,2.883-1.619,4.705-2.101c0,0,0.625,3.521,4.657,2.101c4.032-1.42,4.947-3.968,4.947-3.968L365.059,122.594z"/>
					<path style="fill:#F1624F;" d="M360.249,134.643c0.102-0.036,0.194-0.076,0.292-0.113c-1.599-0.688-3.453-1.935-4.949-1.988
						C355.592,132.542,356.217,136.063,360.249,134.643z"/>
					<path style="fill:#F1624F;" d="M363.454,123.257c-0.228,3.458,0.706,6.329,1.442,7.996c0.217-0.351,0.301-0.577,0.301-0.577
						l-0.137-8.082C365.059,122.594,364.445,122.817,363.454,123.257z"/>
					<g>
						<path style="fill:#CB1C3E;" d="M398.482,128.757c-3.606,1.8-21.557,1.965-29.496,1.941c-2.325-0.005-3.79-0.024-3.79-0.024
							l-0.136-8.08c1.368-0.558,2.679-1.068,3.926-1.524c8.527-3.12,14.156-3.955,14.156-3.955s3.557-19.722,6.163-26.434
							c2.601-6.712,9.072-11.515,9.072-11.515C403.579,84.509,403.141,126.427,398.482,128.757z"/>
						<path style="fill:#99162B;" d="M398.482,128.757c1.404-0.702,2.359-4.966,2.867-10.723l-10.217-14.968
							c-0.363,6.085-0.175,10.477,0.103,13.348c0.239,2.463-1.393,4.72-3.797,5.304l-22.242,5.402l0.861,3.562
							c0.658,0.006,1.659,0.013,2.928,0.016C376.925,130.722,394.876,130.557,398.482,128.757z"/>
						<path style="fill:#F3E8E2;" d="M368.986,121.07v9.628c-2.237,0.512-3.79-0.024-3.79-0.024l-0.136-8.08
							C366.217,121.71,367.467,121.241,368.986,121.07z"/>
					</g>
				</g>
				<g>
					<path style="fill:#0C1A3C;" d="M411.425,64.305c0,0,10.38,0.082,13.24,10.134c2.86,10.053-12.014,21.168-17.98,9.808
						C400.719,72.887,405.214,62.344,411.425,64.305z"/>
					<path style="fill:#CB1C3E;" d="M409.219,63.488c0-0.245,0.736-2.207,0.736-2.207s1.716,0.736,2.207,1.88
						c0.49,1.144-0.082,3.76-2.043,4.495c-1.962,0.736-2.942-2.043-2.942-2.043L409.219,63.488z"/>
					<path style="fill:#0C1A3C;" d="M405.377,49.267c0,0,7.274,7.029,3.841,15.937c-3.433,8.909-19.533,0.735-17.081-8.173
						C394.589,48.123,401.127,46.243,405.377,49.267z"/>
				</g>
				<g>
					<g>
						<path style="fill:#FFAD91;" d="M415.719,151.085c-10.73,9.764-36.181,20.171-36.181,20.171
							c-5.935,8.726-16.58,16.115-24.311,20.002c-0.733,0.364-1.456,0.723-2.169,1.072c-0.573,0.282-1.14,0.558-1.699,0.83
							c-4.469,2.184-8.415,4.13-11.04,6.43c-3.795,3.32-5.833,6.644-7.211,9.211c-1.417,2.63-2.14,4.474-3.353,4.717
							c-2.402,0.48-21.294-4.164-22.416-6.246c-0.68-1.267,2.63-2.359,6.731-3.635c2.62-0.81,5.561-1.703,7.997-2.766
							c6.066-2.645,10.317-5.591,19.208-18.077c0.267-0.369,0.534-0.747,0.806-1.131c0.121-0.17,0.238-0.34,0.364-0.505
							c0.548-0.767,1.126-1.524,1.732-2.271c9.764-12.137,25.274-21.557,25.274-21.557c13.127-15.529,27.215-25.294,27.215-25.294
							l27.215-1.762C423.882,130.276,426.444,141.321,415.719,151.085z"/>
						<path style="fill:#F1624F;" d="M377.627,161.303c0,0-9.928,5.528-26.972,21.201c-15.625,14.368-14.888,19.445-28.132,26.091
							c0,0,5.323-0.498,11.787-1.893c1.331-2.163,3.181-4.639,6.01-7.113c2.625-2.3,6.571-4.246,11.04-6.43
							c0.558-0.272,1.126-0.548,1.699-0.83c0.713-0.349,1.437-0.708,2.169-1.072c7.731-3.887,18.376-11.277,24.311-20.002
							c0,0,3.155-1.291,7.703-3.385c9.503-9.291,17.039-16.88,17.039-16.88l2.608-10.06
							C406.888,140.931,389.849,147.615,377.627,161.303z"/>
						<path style="fill:#CB1C3E;" d="M333.108,208.801c-1.417,2.63-2.14,4.474-3.353,4.717c-2.402,0.48-21.572-4.164-22.693-6.246
							c-0.68-1.267,2.908-2.358,7.009-3.635c1.229,0.405,2.827,1.25,4.736,2.943c1.975,1.751,4.472,2.844,7.101,3.087
							C328.185,209.879,330.872,209.797,333.108,208.801z"/>
						<path style="fill:#99162B;" d="M329.754,213.518c1.213-0.243,1.936-2.087,3.354-4.717c-2.236,0.996-4.923,1.078-7.201,0.867
							c-2.281-0.211-4.461-1.063-6.289-2.428c-2.457,0.924-6.707,1.752-12.557,0.033
							C308.182,209.354,327.352,213.998,329.754,213.518z"/>
						<path style="fill:#346E94;" d="M415.719,151.085c-10.73,9.764-36.181,20.171-36.181,20.171
							c-5.935,8.726-16.58,16.115-24.311,20.002c-0.733,0.364-1.456,0.723-2.169,1.072c-2.281-6.901-7.177-9.89-10.613-11.171
							c0.548-0.767,1.126-1.524,1.732-2.271c9.764-12.137,25.274-21.557,25.274-21.557c13.127-15.529,27.215-25.294,27.215-25.294
							l27.215-1.762C423.882,130.276,426.444,141.321,415.719,151.085z"/>
						<path style="opacity:0.3;fill:#185177;" d="M377.627,161.303c0,0-9.928,5.528-26.972,21.201
							c-0.839,0.771-1.621,1.51-2.37,2.23c1.9,1.763,3.653,4.206,4.773,7.596c0.713-0.349,1.437-0.708,2.169-1.072
							c7.731-3.887,18.376-11.277,24.311-20.002c0,0,3.155-1.291,7.703-3.385c9.503-9.291,17.039-16.88,17.039-16.88l2.608-10.06
							C406.888,140.931,389.849,147.615,377.627,161.303z"/>
						<path style="fill:#F3E8E2;" d="M355.228,191.258c-1.32,0.66-2.616,1.291-3.868,1.902c-0.524-7.173-6.741-9.594-10.084-10.366
							c0.755-1.762,1.921-3.053,2.902-3.907C352.292,181.552,354.645,187.171,355.228,191.258z"/>
					</g>
					<g>
						<path style="fill:#FFAD91;" d="M434.699,151.929c-10.914,12.501-41.478,25.4-41.478,25.4s-2.975,9.924-12.899,14.491
							c-2.761,1.271-7.245,3.402-12.278,5.814c-0.844,0.408-1.703,0.82-2.572,1.238c-1.291,0.621-2.611,1.252-3.926,1.888
							c-11.506,5.552-23.299,11.303-23.299,11.303v0.068c-0.005,0.607-0.398,4.858-9.948,4.096
							c-9.517-0.762-17.835-2.776-12.079-5.353c1.354-0.607,2.824-1.082,4.494-1.645c5.421-1.839,12.885-4.635,24.881-16.02
							c2.426-2.305,4.872-4.567,7.27-6.741c0.825-0.747,1.64-1.485,2.451-2.208c0.524-0.466,1.038-0.927,1.553-1.383
							c11.409-10.123,20.872-17.65,20.872-17.65c16.874-18.262,33.081-28.819,33.081-28.819l28.046-11.47
							C438.868,124.938,445.613,139.423,434.699,151.929z"/>
						<path style="fill:#CB1C3E;" d="M338.247,212.062v0.068c-0.005,0.607-0.398,4.858-9.948,4.096
							c-9.517-0.762-18.114-2.875-12.359-5.452c1.354-0.607,2.965-1.283,4.773-1.546c0.689,0.573,1.597,1.475,2.655,2.887
							C325.833,215.401,338.247,212.062,338.247,212.062z"/>
						<path style="fill:#346E94;" d="M434.699,151.929c-10.914,12.501-41.478,25.4-41.478,25.4s-2.975,9.924-12.899,14.491
							c-2.761,1.271-7.245,3.402-12.278,5.814c-0.844,0.408-1.703,0.82-2.572,1.238c-2.3-9.007-7.279-13.001-10.157-14.612
							c0.524-0.466,1.038-0.927,1.553-1.383c11.409-10.123,20.872-17.65,20.872-17.65c16.874-18.262,32.748-29.574,32.748-29.574
							l28.38-10.715C438.868,124.938,445.613,139.423,434.699,151.929z"/>
						
							<path style="fill:none;stroke:#185177;stroke-width:0.6978;stroke-linecap:round;stroke-linejoin:round;stroke-miterlimit:10;" d="
							M356.868,182.877c8.501-7.329,20.872-17.65,20.872-17.65c10.796-11.684,21.182-20.523,27.264-25.374"/>
						<path style="fill:#F3E8E2;" d="M361.546,200.76c0.665-9.686-5.668-13.224-8.682-14.292c1.354-1.228,2.693-2.426,4.004-3.591
							c8.473,1.985,10.638,10.186,11.176,14.758C366.03,199.158,363.655,200.199,361.546,200.76z"/>
						
							<path style="fill:none;stroke:#185177;stroke-width:0.6978;stroke-linecap:round;stroke-linejoin:round;stroke-miterlimit:10;" d="
							M425.968,134.265c0,0-1.389,6.549,6.351,8.335"/>
						
							<path style="fill:none;stroke:#185177;stroke-width:0.6978;stroke-linecap:round;stroke-linejoin:round;stroke-miterlimit:10;" d="
							M425.77,142.204c0,0-11.511,15.877-37.112,28.38c0,0-4.575,10.309-21.37,19.047"/>
					</g>
				</g>
				<g>
					<path style="fill:#CB1C3E;" d="M409.028,73.009c-13.013,5.479-12.465,9.041-13.013,9.999
						c-0.548,0.959-5.616,14.657-4.794,21.779c0.822,7.123,5.342,13.424,5.342,13.424s-1.219,13.544-1.204,14.092
						c0.038,1.438,6.272,6.317,22.025,3.989c15.752-2.329,23.423-9.725,23.423-9.725s-3.15-22.738-3.287-23.149
						c-0.137-0.411,1.233-23.286,0.274-26.436C436.834,73.83,422.366,67.393,409.028,73.009z"/>
					<path style="fill:#99162B;" d="M440.807,126.566c0,0-1.331-9.604-2.3-16.441c-3.458-7.213-7.479-13.714-11.533-16.159
						c3.305,15.507-0.375,33.743-0.987,40.372C435.924,131.252,440.807,126.566,440.807,126.566z"/>
					<path style="fill:#F3E8E2;" d="M437.519,103.417c-0.046-0.137,0.075-2.758,0.222-6.306l-2.961-6.867
						c0,0-19.373,13.12-43.645,12.822c0,0.604,0.025,1.183,0.086,1.721c0.822,7.123,5.342,13.424,5.342,13.424
						c18.617,1.954,34.684-2.968,42.253-5.894C438.158,107.647,437.576,103.589,437.519,103.417z"/>
					<path style="fill:#F3E8E2;" d="M403.942,75.394l1.06,2.533c-0.425,1.988-2.074,10.575,0.359,13.62
						c0.622,0.777,1.474,1.188,2.462,1.188c2.631,0,4.495-3.313,5.701-10.129c0.825-4.662,1.038-9.24,1.047-9.433
						c0.008-0.183-0.034-0.363-0.121-0.524l-0.631-1.157c-1.597,0.353-3.202,0.846-4.791,1.515
						C407.03,73.85,405.354,74.646,403.942,75.394z"/>
					<path style="fill:#C2BAB4;" d="M428.076,115.715c4.434-1.127,8.11-2.382,10.741-3.398c-0.106-0.75-0.21-1.488-0.31-2.192
						c-3.308-6.901-7.132-13.14-11.007-15.809c-0.136,0.067-0.277,0.134-0.416,0.202
						C428.492,101.501,428.523,108.995,428.076,115.715z"/>
					
						<path style="fill:none;stroke:#99162B;stroke-width:0.6978;stroke-linecap:round;stroke-linejoin:round;stroke-miterlimit:10;" d="
						M395.754,83.59c-1.178,2.867-5.278,14.737-4.533,21.197c0.822,7.123,5.342,13.424,5.342,13.424s-1.352,10.577-1.193,14.61"/>
				</g>
				<g>
					<g>
						<path style="fill:#0C1A3C;" d="M408.893,97.378h-2.878v7.143h2.878c0.781,0,1.412-0.631,1.412-1.412v-4.324
							C410.305,98.009,409.674,97.378,408.893,97.378z M409.16,102.697c0,0.204-0.165,0.369-0.369,0.369h-1.902v-4.237h1.902
							c0.204,0,0.369,0.165,0.369,0.369V102.697z"/>
						<path style="fill:#0C1A3C;" d="M405.457,107.856c0,0.539-1.985,0.98-4.435,0.98c-2.451,0-4.441-0.442-4.441-0.98
							c-3.023-4.688-1.184-11.914-1.184-11.914h11.244C406.641,95.942,408.485,103.168,405.457,107.856z"/>
						<path style="fill:#F3E8E2;" d="M406.642,95.942c0,0.688-2.517,1.245-5.622,1.245s-5.622-0.557-5.622-1.245
							c0-0.688,2.517-1.245,5.622-1.245S406.642,95.254,406.642,95.942z"/>
						<path style="fill:#93405C;" d="M405.228,95.942c0,0.349-1.884,0.633-4.208,0.633s-4.208-0.283-4.208-0.633
							c0-0.35,1.884-0.633,4.208-0.633S405.228,95.592,405.228,95.942z"/>
					</g>
					<g>
						<g>
							<path style="fill:#CB1C3E;" d="M446.56,128.208c-9.881,1.776-20.47-7.842-25.609-13.345c-1.985-2.131-3.154-3.64-3.154-3.64
								c-1.781-5.202,2.873-9.725,2.873-9.725c1.669,0.524,3.188,1.072,4.547,1.601c4.664,1.825,7.371,3.47,7.371,3.47
								l-5.615-12.603c0,0-1.286-16.796,8.08-18.354c2.465-0.412,7.469,3.999,12.676,16.189
								C452.932,103.992,460.26,125.743,446.56,128.208z"/>
							
								<path style="fill:none;stroke:#99162B;stroke-width:0.6978;stroke-linecap:round;stroke-linejoin:round;stroke-miterlimit:10;" d="
								M432.588,106.569c0,0,10.9-0.562,16.755,11.033"/>
							
								<path style="fill:none;stroke:#99162B;stroke-width:0.6978;stroke-linecap:round;stroke-linejoin:round;stroke-miterlimit:10;" d="
								M424.717,103.303c4.664,1.825,7.871,3.266,7.871,3.266l-4.959-11.131c-0.461-1.035-0.709-2.151-0.715-3.285
								c-0.022-4.024,0.566-13.547,6.431-16.047"/>
							
								<path style="fill:none;stroke:#99162B;stroke-width:0.6978;stroke-linecap:round;stroke-linejoin:round;stroke-miterlimit:10;" d="
								M437.566,127.12c-6.627-2.516-13.164-9.126-16.786-12.963"/>
							<path style="fill:#FF8AAB;" d="M420.951,114.863c-1.985-2.131-3.154-3.64-3.154-3.64c-1.781-5.202,2.873-9.725,2.873-9.725
								c1.669,0.524,3.188,1.072,4.547,1.601C425.658,105.337,426.066,110.777,420.951,114.863z"/>
							<path style="fill:#F3E8E2;" d="M420.951,114.863c-2.546-2.028-3.154-3.64-3.154-3.64c-1.781-5.202,2.873-9.725,2.873-9.725
								c1.611,0,3.142,0.681,4.547,1.601C425.658,105.337,426.066,110.777,420.951,114.863z"/>
						</g>
						<path style="fill:#FFAD91;" d="M420.669,101.498c0,0,1.818,5.073-2.873,9.725c0,0-3.408,0.2-5.974-0.102
							c-2.566-0.302-3.245-7.471-3.245-7.471s-1.66-2.641-0.377-4.453C409.483,97.386,416.837,99.346,420.669,101.498z"/>
						<path style="fill:#F1624F;" d="M415.151,109.178c-1.246-0.075-2.377-0.771-2.966-1.871c-0.817-1.527-2.199-3.603-4.026-4.494
							c0.211,0.505,0.418,0.837,0.418,0.837s0.679,7.169,3.245,7.471c2.566,0.302,5.974,0.102,5.974,0.102
							c0.482-0.478,0.88-0.961,1.234-1.442C417.937,109.419,416.397,109.253,415.151,109.178z"/>
					</g>
				</g>
				<path style="fill:#F3E8E2;" d="M407.718,67.589c-5.617,1.627-11.498,12.648-7.631,18.815c3.867,6.167,12.648,4.39,17.038-1.673
					C421.516,78.669,418.903,64.348,407.718,67.589z"/>
				<path style="fill:#FFAD91;" d="M403.642,72.084l1.073,2.567c0.818,1.957,1.099,4.096,0.785,6.194
					c-0.612,4.088-1.114,10.891,2.323,10.891c4.913,0,5.749-18.606,5.749-18.606l-6.899-12.648L403.642,72.084z"/>
				<path style="fill:#F1624F;" d="M406.616,62.194l-0.264-0.484l-2.71,10.373l1.168,2.793c0.87-0.657,1.538-1.523,2.042-2.476
					C408.535,69.215,408.341,65.358,406.616,62.194z"/>
				<g>
					<path style="fill:#FFAD91;" d="M393.449,49.593c-5.253,1.967-5.847,9.46-2.759,15.702c3.088,6.241,10.327,10.007,13.004,8.085
						c3.884-2.788,3.747-9.818,3.747-9.818S406.138,44.842,393.449,49.593z"/>
					<path style="fill:#0C1A3C;" d="M392.278,67.78c0,0-2.747-6.916,0.49-13.023c0.477-0.9,1.714-1.03,2.376-0.256
						c2.027,2.371,6.454,6.585,12.114,6.29c0,0,2.534-6.702-1.88-11.524c-4.169-4.555-10.016-4.661-12.993-1.076
						c-0.331,0.398-0.817,0.625-1.334,0.648c-1.962,0.089-6.671,1.13-6.596,9.091C384.536,66.594,392.278,67.78,392.278,67.78z"/>
					<g>
						<path style="fill:#FFAD91;" d="M405.09,60.686c0,0-1.135-3.051,1.176-4.069c2.312-1.018,3.904,5.686,0.623,7.131
							L405.09,60.686z"/>
						<path style="fill:#F3E8E2;" d="M408.928,63.527c0,0.821-0.666,1.487-1.487,1.487s-1.487-0.666-1.487-1.487
							c0-0.821,0.666-1.487,1.487-1.487S408.928,62.706,408.928,63.527z"/>
					</g>
				</g>
			</g>
			<g>
				<g>
					
						<polyline style="opacity:0.2;fill:none;stroke:#185177;stroke-width:0.703;stroke-linecap:round;stroke-linejoin:round;stroke-miterlimit:10;" points="
						346.574,37.294 328.195,18.915 309.817,37.294 					"/>
					<path style="fill:#FFAA3F;" d="M329.979,18.915c0,0.985-0.799,1.784-1.784,1.784c-0.985,0-1.784-0.799-1.784-1.784
						c0-0.985,0.799-1.784,1.784-1.784C329.18,17.131,329.979,17.93,329.979,18.915z"/>
				</g>
				<g>
					<path style="fill:#F3E8E2;" d="M366.865,93.775h-77.339c-0.651,0-1.18-0.528-1.18-1.179V36.831c0-0.651,0.528-1.179,1.18-1.179
						h77.339c0.651,0,1.179,0.528,1.179,1.179v55.765C368.044,93.247,367.516,93.775,366.865,93.775z"/>
					<g>
						<rect x="295.368" y="41.979" style="opacity:0.5;fill:#FFAA3F;" width="65.655" height="2.059"/>
						<rect x="295.368" y="52.831" style="opacity:0.5;fill:#FFAA3F;" width="65.655" height="2.059"/>
						<rect x="295.368" y="63.684" style="opacity:0.5;fill:#FFAA3F;" width="65.655" height="2.059"/>
						<rect x="295.368" y="74.536" style="opacity:0.5;fill:#FFAA3F;" width="65.655" height="2.059"/>
						<rect x="295.368" y="85.389" style="opacity:0.5;fill:#FFAA3F;" width="65.655" height="2.059"/>
					</g>
				</g>
			</g>
			<g>
				<g>
					<g>
						<g>
							
								<rect x="291.657" y="146.199" transform="matrix(0.8941 -0.4479 0.4479 0.8941 -46.3249 149.2368)" style="fill:#EC8120;" width="1.456" height="52.739"/>
							<rect x="279.846" y="148.992" style="fill:#EC8120;" width="1.456" height="65.191"/>
							<path style="fill:#EC8120;" d="M280.574,212.049c-1.178,0.001-2.133,0.955-2.133,2.133c0,1.178,0.955,2.133,2.133,2.133
								c1.178-0.001,2.133-0.955,2.133-2.133C282.707,213.004,281.752,212.05,280.574,212.049z"/>
							<rect x="303.468" y="148.992" style="fill:#EC8120;" width="1.456" height="65.191"/>
							<path style="fill:#EC8120;" d="M304.195,212.049c-1.178,0.001-2.133,0.955-2.133,2.133c0.001,1.178,0.955,2.133,2.133,2.133
								c1.178-0.001,2.133-0.955,2.133-2.133C306.328,213.004,305.374,212.05,304.195,212.049z"/>
							<rect x="280.574" y="195.417" style="fill:#EC8120;" width="23.621" height="1.456"/>
							
								<rect x="266.015" y="171.84" transform="matrix(0.4479 -0.8941 0.8941 0.4479 7.1354 356.6915)" style="fill:#EC8120;" width="52.739" height="1.456"/>
						</g>
					</g>
					<g>
						<rect x="302.986" y="141.632" style="fill:#EC8120;" width="68.184" height="7.36"/>
						<rect x="277.589" y="141.632" style="fill:#FFAA3F;" width="25.397" height="7.36"/>
					</g>
				</g>
				<g>
					<g>
						<path style="fill:#185177;" d="M338.897,141.632h-25.973c-1.871,0-3.387-1.516-3.387-3.387v-0.172h29.36V141.632z"/>
						<path style="fill:#0C1A3C;" d="M365.599,141.632h-28.41c-1.871,0-3.387-1.516-3.387-3.387v-0.172h35.184v0.172
							C368.986,140.115,367.469,141.632,365.599,141.632z"/>
					</g>
					<g>
						<path style="fill:#185177;" d="M345.446,138.073l-10.675-25.235h-35.908l-0.277,0.277c-0.519,0.519-0.672,1.302-0.386,1.978
							l9.334,22.067c0.234,0.554,0.777,0.913,1.378,0.913H345.446z"/>
						<polygon style="fill:#6AA0C2;" points="336.388,112.838 298.863,112.838 309.537,138.073 347.063,138.073 						"/>
						<polygon style="fill:#F3E8E2;" points="301.489,114.213 334.925,114.213 344.437,136.698 311,136.698 						"/>
					</g>
				</g>
			</g>
		</g>
		<g>
			<g>
				<g>
					<g>
						<g>
							<path style="fill:#EC8120;" d="M88.531,126.646v20.325h4.239c0,0,1.157-11.322,13.383-18.915l-3.592-1.98l-5.557-3.062
								C97.004,123.013,92.315,123.736,88.531,126.646z"/>
							<path style="fill:#0C1A3C;" d="M88.531,146.971h4.239c0,0,1.157-11.322,13.383-18.915l-3.592-1.98
								C98.974,128.682,90.936,135.624,88.531,146.971z"/>
						</g>
						<path style="fill:#0C1A3C;" d="M97.625,128.126h7.977c1.409,0,2.55-1.142,2.55-2.55v-0.102c0-1.409-1.142-2.55-2.55-2.55
							h-7.977c-1.409,0-2.55,1.142-2.55,2.55v0.102C95.075,126.984,96.216,128.126,97.625,128.126z"/>
					</g>
					<g>
						<g>
							<path style="fill:#EC8120;" d="M42.299,126.646v20.325h-4.239c0,0-1.157-11.322-13.383-18.915l3.592-1.98l5.557-3.062
								C33.827,123.013,38.515,123.736,42.299,126.646z"/>
							<path style="fill:#FFAA3F;" d="M32.685,127.262l0.521,0.864c3.445,0,6.618,3.163,9.094,6.712v-8.192
								c-3.784-2.91-8.472-3.632-8.472-3.632l0,0C32.31,123.849,31.791,125.778,32.685,127.262z"/>
							<path style="fill:#0C1A3C;" d="M42.299,146.971h-4.239c0,0-1.157-11.322-13.383-18.915l3.592-1.98
								C31.857,128.682,39.895,135.624,42.299,146.971z"/>
						</g>
						<path style="fill:#0C1A3C;" d="M33.206,128.126h-7.977c-1.409,0-2.55-1.142-2.55-2.55v-0.102c0-1.409,1.142-2.55,2.55-2.55
							h7.977c1.409,0,2.55,1.142,2.55,2.55v0.102C35.756,126.984,34.614,128.126,33.206,128.126z"/>
					</g>
					<path style="fill:#0C1A3C;" d="M88.532,104.546v43.243H42.299v-43.243c0-9.794,7.939-17.733,17.733-17.733h10.766
						C80.592,86.813,88.532,94.752,88.532,104.546z"/>
					<path style="fill:#0C1A3C;" d="M93.491,156.192H37.34c-2.649,0-4.797-2.147-4.797-4.796v-0.789
						c0-2.649,2.147-4.796,4.797-4.796h56.152c2.649,0,4.797,2.147,4.797,4.796v0.789C98.288,154.045,96.14,156.192,93.491,156.192z
						"/>
					<g>
						<path style="fill:#0C1A3C;" d="M46.215,209.68c-1.689,0-3.059,1.369-3.059,3.059c0,1.689,1.37,3.059,3.059,3.059
							s3.059-1.369,3.059-3.059C49.273,211.05,47.904,209.68,46.215,209.68z"/>
						<path style="fill:#0C1A3C;" d="M84.616,209.68c-1.689,0-3.059,1.369-3.059,3.059c0,1.689,1.37,3.059,3.059,3.059
							c1.689,0,3.059-1.369,3.059-3.059C87.675,211.05,86.305,209.68,84.616,209.68z"/>
						<path style="fill:#FFAA3F;" d="M87.675,205.903h-0.373h-0.374c-10.3,0-18.65-8.35-18.65-18.65v-0.374v-11.663v-0.374
							c0-10.3,8.35-18.65,18.65-18.65H43.903c10.3,0,18.65,8.35,18.65,18.65v0.374v11.663v0.374c0,10.3-8.35,18.65-18.65,18.65
							h-0.374h-0.373v3.145c0,0.77,0.624,1.394,1.394,1.394h41.732c0.77,0,1.394-0.624,1.394-1.394V205.903z"/>
						<path style="fill:#EC8120;" d="M43.353,209.72c0.239,0.423,0.675,0.721,1.196,0.722c1.8,0,3.451-0.062,4.965-0.173
							c8.965-0.657,15.902-8.113,15.902-17.103v-15.498c0-5.226,2.233-10.258,6.262-13.585c0.029-0.024,0.058-0.048,0.087-0.071l0,0
							c3.383-4.727,8.906-7.819,15.163-7.819H43.903c10.3,0,18.65,8.35,18.65,18.65v0.374v11.663v0.374
							c0,10.3-8.35,18.65-18.65,18.65h-0.374h-0.373v3.145c0,0.192,0.039,0.375,0.109,0.541
							C43.286,209.638,43.327,209.674,43.353,209.72z"/>
						<path style="fill:#0C1A3C;" d="M65.415,209.68c-1.689,0-3.059,1.369-3.059,3.059c0,1.689,1.37,3.059,3.059,3.059
							c1.689,0,3.059-1.369,3.059-3.059C68.474,211.05,67.104,209.68,65.415,209.68z"/>
					</g>
				</g>
				<g>
					<path style="fill:#346E94;" d="M97.819,56.82c7.519,2.924,17.707,31.506,17.585,43.229
						c-0.122,11.723-12.578,5.862-16.486-7.327S89.027,53.401,97.819,56.82z"/>
					<path style="opacity:0.3;fill:#185177;" d="M102.057,66.996l-3.663,23.877c0.189,0.664,0.376,1.313,0.557,1.926
						c0.662,2.233,1.568,4.254,2.618,6.015c2.1,3.523,7.459,2.215,7.692-1.88c0.052-0.91,0.042-1.875-0.037-2.898
						C108.001,78.322,102.057,66.996,102.057,66.996z"/>
					<path style="fill:#EC8120;" d="M99.185,118.731c0,0,28.397,11.512,29.932,27.169c1.535,15.657-19.648,9.824-29.932,3.377
						c-10.284-6.447-33.769-31.62-33.769-31.62L99.185,118.731z"/>
					<g>
						<g>
							<path style="fill:#93405C;" d="M135.111,215.427c-10.135,1.153-20.89-0.748-20.89-0.748
								c-0.178-0.792-0.302-1.783-0.396-2.808c-0.262-2.843-0.262-5.963-0.262-5.963l12.65-1.243c0.708,2.13,2.927,4.2,5.314,5.914
								c1.382,0.987,2.822,1.855,4.06,2.544C136.638,213.707,136.308,215.29,135.111,215.427z"/>
							<path style="fill:#56114A;" d="M127.192,206.499c-0.429-0.602-0.774-1.215-0.98-1.835l-12.65,1.243c0,0,0,2.152,0.151,4.511
								C116.749,210.439,121.984,209.866,127.192,206.499z"/>
							<path style="fill:#0C1A3C;" d="M136.478,215.251c-12.266,2.695-22.257-0.573-22.257-0.573
								c-0.178-0.792-0.302-1.783-0.396-2.808c3.621,0.476,12.125,1.223,17.701-1.293c1.839,1.313,3.779,2.415,5.212,3.167
								C137.427,214.106,137.237,215.085,136.478,215.251z"/>
						</g>
						<g>
							<path style="fill:#FFAA3F;" d="M132.646,202.078c-11.05,9.366-24.096,3.685-24.096,3.685
								c-0.198-1.184-0.396-2.457-0.584-3.794c-2.159-15.161-3.715-38.88-3.715-38.88s-26.404-5.676-43.749-15.81
								c-17.345-10.128-18.727-29.469-18.727-29.469l25.943-1.535c0,0,52.649,17.498,57.869,30.544
								c4.294,10.748,6.305,41.282,6.874,51.713C132.586,200.766,132.646,202.078,132.646,202.078z"/>
							<path style="fill:#EC8120;" d="M125.588,146.819c-0.245-0.613-0.596-1.237-1.041-1.867
								c-3.733-1.566-11.096,1.411-17.208,10.443c-1.23,1.819-2.538,4.448-3.853,7.523c0.491,0.112,0.765,0.171,0.765,0.171
								s1.555,23.719,3.715,38.88c0.188,1.337,0.386,2.61,0.584,3.794c0,0,2.612,1.133,6.484,1.552
								c0.315-0.51,0.65-1.031,0.952-1.535c8.744-14.555,12.739-26.878,14.028-36.57
								C128.936,160.178,127.485,151.567,125.588,146.819z"/>
							
								<path style="fill:none;stroke:#FFFFFF;stroke-width:0.7539;stroke-linecap:round;stroke-linejoin:round;stroke-miterlimit:10;" d="
								M81.938,121.44c9.542,3.683,22.008,8.935,31.245,14.404"/>
							<g>
								<path style="fill:#EC8120;" d="M56.873,127.745c3.068-1.447,3.816-4,3.935-5.763c0.068-1.002-0.897-1.768-1.862-1.488
									C55.898,121.375,50.541,123.659,56.873,127.745"/>
								
									<path style="fill:none;stroke:#D98609;stroke-width:0.7484;stroke-linecap:round;stroke-linejoin:round;stroke-miterlimit:10;" d="
									M48.903,121.928c0,0,9.386,15.128,55.978,26.69"/>
							</g>
							<path style="fill:#0C1A3C;" d="M132.646,202.078c-11.05,9.366-24.096,3.685-24.096,3.685
								c-0.198-1.184-0.396-2.457-0.584-3.794c3.527,0.867,13.967,2.625,24.497-3.437
								C132.586,200.766,132.646,202.078,132.646,202.078z"/>
						</g>
					</g>
					<g>
						<path style="fill:#346E94;" d="M76.067,48.942c-12.223-0.013-21.027,11.19-25.085,15.985
							c-3.858,4.56-10.162,36.465-10.456,51.748c-0.024,1.23,0.983,2.233,2.213,2.233h57.551c0,0,0.369-21.642,1.476-35.66
							C102.873,69.231,105.414,48.973,76.067,48.942z"/>
						<path style="fill:#6AA0C2;" d="M76.132,48.595c-13.941,1.268-20.14,10.358-22.927,13.707
							c14.929-13.361,33.319-12.439,41.03-8.955C90.278,50.632,84.521,47.832,76.132,48.595z"/>
						<path style="opacity:0.3;fill:#185177;" d="M53.555,80.284c-1.903,7.719-4.67,21.585-5.21,38.625h36.179
							c10.551-6.15-17.275-26.833-26.378-39.531C56.87,77.597,54.079,78.157,53.555,80.284z"/>
						
							<path style="fill:none;stroke:#185177;stroke-width:0.7484;stroke-linecap:round;stroke-linejoin:round;stroke-miterlimit:10;" d="
							M100.3,118.373c0.065-3.413,0.462-22.406,1.466-35.125c0.581-7.353,1.635-16.33-1.771-23.257"/>
						<path style="opacity:0.3;fill:#185177;" d="M89.61,72.719h9.889c0,0,1.253,11.003-4.875,11.003
							C88.496,83.722,89.61,72.719,89.61,72.719z"/>
						
							<path style="fill:none;stroke:#F3E8E2;stroke-width:0.4953;stroke-linecap:round;stroke-linejoin:round;stroke-miterlimit:10;" d="
							M82.322,64.404c0,0,3.787,16.592,3.787,50.409"/>
					</g>
					<g>
						<path style="fill:#346E94;" d="M84.631,93.821c-5.873,1.546-5.373,11.113,1.343,13.433c6.716,2.32,26.865,3.419,28.697-3.541
							C116.503,96.752,107.832,87.715,84.631,93.821z"/>
					</g>
					<path style="opacity:0.3;fill:#185177;" d="M109.191,96.361c-12.63-3.732-23.489-0.078-23.489-0.078l-1.76,0.382
						c-2.18,0.473-3.67,2.62-3.16,4.792l0.01,0.043l0.881,2.195c0.895,1.553,2.321,2.875,4.302,3.56
						c0.216,0.075,0.445,0.148,0.688,0.219c3.798,1.124,7.869,0.803,11.551-0.658C107.301,103.209,116.456,98.508,109.191,96.361z"
						/>
					<g>
						
							<path style="fill:none;stroke:#185177;stroke-width:0.7484;stroke-linecap:round;stroke-linejoin:round;stroke-miterlimit:10;" d="
							M110.075,94.426c-4.368-2.597-14.461-3.552-27.753,0"/>
					</g>
					<g>
						<g>
							<path style="fill:#93405C;" d="M113.419,96.883c0,0,9.296-1.118,16.565,1.608c7.269,2.726,8.667,5.102,8.527,5.871
								s-7.898-0.349-7.898-0.349s-0.799,6.785-6.011,5.941c-3.452-0.559-3.519-1.503-3.774-2.516c0,0-1.822,0.096-4.838-1.078
								C112.498,105.001,113.419,96.883,113.419,96.883z"/>
							<path style="fill:#56114A;" d="M115.405,103.341l-0.202,2.52c0.236,0.204,0.49,0.383,0.787,0.498
								c3.016,1.174,4.838,1.078,4.838,1.078c0.256,1.013,0.322,1.957,3.774,2.516c1.026,0.166,1.875,0.03,2.587-0.285
								C128.191,104.039,115.405,103.341,115.405,103.341z"/>
						</g>
						<path style="fill:#F3E8E2;" d="M110.134,96.744l4.124-0.419c0,0,5.032,4.823,2.376,13.21l-4.264,1.188L110.134,96.744z"/>
						<g>
							<path style="fill:#56114A;" d="M86.462,95.531c4.021,2.335,2.564,6.716-0.488,6.35c-3.053-0.366-6.472,0.855-9.403,1.954
								c-2.931,1.099-3.786-4.03-1.343-7.327C77.67,93.21,82.677,93.332,86.462,95.531z"/>
							<path style="fill:#346E94;" d="M54.302,62.468c-7.098,2.191-5.656,17.707-0.246,32.094s13.034,25.7,25.085,24.839
								c12.05-0.861,33.569-6.64,33.569-7.009c0-0.369,3.32-8.976-2.336-16.108c0,0-16.804,0.513-30.084,3.956
								C80.29,100.238,64.262,59.394,54.302,62.468z"/>
							<path style="fill:#6AA0C2;" d="M83.759,116.798c-11.738,1.146-20.572-8.55-27.315-22.362
								c-4.582-9.386-7.385-19.46-6.561-25.85c-1.269,6.313,0.57,16.392,4.174,25.976c5.41,14.387,13.034,25.7,25.085,24.839
								c12.05-0.861,33.569-6.64,33.569-7.009C112.71,112.228,93.024,115.893,83.759,116.798z"/>
							
								<path style="fill:none;stroke:#185177;stroke-width:0.7484;stroke-linecap:round;stroke-linejoin:round;stroke-miterlimit:10;" d="
								M80.29,100.238c-5.677-13.215-18.784-39.994-25.988-37.771c-7.098,2.191-5.656,17.707-0.246,32.094
								s13.034,25.7,25.085,24.839c5.317-0.38,23.247-3.575,33.569-7.009"/>
							
								<path style="fill:none;stroke:#185177;stroke-width:0.7484;stroke-linecap:round;stroke-linejoin:round;stroke-miterlimit:10;" d="
								M110.374,96.283c-3.539,0.217-18.469,0.66-30.084,3.956"/>
							<g>
								<path style="fill:#F3E8E2;" d="M106.29,110.618c0,0.675-0.548,1.223-1.223,1.223c-0.676,0-1.223-0.548-1.223-1.223
									s0.548-1.223,1.223-1.223C105.742,109.394,106.29,109.942,106.29,110.618z"/>
								<path style="fill:#F3E8E2;" d="M111.637,109.674c0,0.675-0.548,1.223-1.223,1.223c-0.675,0-1.223-0.548-1.223-1.223
									c0-0.676,0.548-1.223,1.223-1.223C111.089,108.451,111.637,108.998,111.637,109.674z"/>
							</g>
						</g>
					</g>
					<g>
						<g>
							<path style="fill:#93405C;" d="M104.907,210.168c-8.754-4.631-16.223-11.692-16.223-11.692
								c0.287-0.76,0.728-1.655,1.214-2.563c1.344-2.519,3.06-5.125,3.06-5.125l11.249,5.918c-0.58,2.168,0.135,5.118,1.187,7.862
								c0.49,1.269,1.053,2.495,1.594,3.578C107.65,209.473,106.218,210.862,104.907,210.168z"/>
							<path style="fill:#56114A;" d="M104.206,196.706l-11.249-5.918c0,0-1.111,1.687-2.245,3.658
								c4.752,3.903,9.938,4.791,13.332,4.877C103.96,198.38,103.996,197.491,104.206,196.706z"/>
							<path style="fill:#0C1A3C;" d="M107.172,211.462c-14.348-5.326-18.489-12.986-18.489-12.986
								c0.287-0.76,0.728-1.655,1.214-2.563c2.762,2.388,9.454,7.689,15.496,8.655c0.864,2.239,1.956,4.342,2.755,5.77
								C108.506,210.977,107.86,211.717,107.172,211.462z"/>
						</g>
						<path style="fill:#FFAA3F;" d="M115.048,196.437c-0.748,1.248-1.535,2.516-2.358,3.799c0,0-15.963,0.921-22.1-9.975
							c0,0,0.49-1.857,1.332-4.834c2.759-9.797,9.297-31.718,14.477-39.375c6.751-9.975,15.042-12.585,18.266-9.822
							C130.1,140.886,135.33,162.678,115.048,196.437z"/>
						
							<path style="fill:none;stroke:#D98609;stroke-width:0.7484;stroke-linecap:round;stroke-linejoin:round;stroke-miterlimit:10;" d="
							M113.661,144.539c0,0-7.111,19.729-14.7,44.988"/>
						
							<path style="fill:none;stroke:#D98609;stroke-width:0.7484;stroke-linecap:round;stroke-linejoin:round;stroke-miterlimit:10;" d="
							M99.315,161.907c2.14-5.802,5.053-12.851,7.085-15.856c3.507-5.182,7.786-9.06,11.198-10.546"/>
						<path style="fill:#0C1A3C;" d="M115.048,196.437c-0.748,1.248-1.535,2.516-2.358,3.799c0,0-15.963,0.921-22.1-9.975
							c0,0,0.49-1.857,1.332-4.834C93.86,188.2,100.14,195.12,115.048,196.437z"/>
					</g>
					<path style="fill:#F3E8E2;" d="M75.068,48.335c-4.753,0.047-5.814,4.957-4.262,9.542c0.168,0.497,0.732,0.734,1.198,0.492
						c0.84-0.436,2.118-1.027,2.878-1.027c1.207,0,6.872,5.572,6.872,5.572s1.054-2.039,2.185-4.953
						c0.329-0.849,1.176-1.397,2.083-1.311c0.014,0.001,0.029,0.003,0.044,0.004c0.685,0.067,1.167-0.648,0.831-1.249
						C85.518,52.944,81.985,48.266,75.068,48.335z"/>
					<path style="fill:#0C1A3C;" d="M74.661,51.313c-0.328,4.311,3.369,7.256,5.336,7.961c0.474,0.17,1.031-0.39,1.222-0.856
						c0.182-0.443,0.425-1.103,0.733-2.074C82.74,53.862,74.661,51.313,74.661,51.313z"/>
					<path style="fill:#93405C;" d="M79.898,38.272l-5.237,13.041c0,0,0.698,5.032,7.291,5.032l4.107-12.938L79.898,38.272z"/>
					<path style="fill:#56114A;" d="M79.898,38.272l-0.822,2.048c-1.125,2.802-1.352,5.934-0.381,8.792
						c0.682,2.006,1.866,3.942,3.881,5.267l0,0l3.483-10.973L79.898,38.272z"/>
					<g>
						<path style="fill:#93405C;" d="M90.29,26.68c-10.528-3.269-12.857,10.36-10.7,17.959c2.156,7.599,8.42,6.367,12.117-0.205
							S97.603,28.951,90.29,26.68z"/>
						<path style="fill:#0C1A3C;" d="M104.447,24.498c-1.877-2.303-4.375-2.267-6.403-1.656c-2.359,0.711-4.864,0.797-7.207,0.036
							c-7.3-2.371-13.487,2.677-14.795,8.851c-1.863,8.797,0.668,14.482,0.668,14.482l2.155-5.27c0,0-0.18,9.225,5.351,10.699
							c8.781,2.34,11.335-15.785,11.563-18.207C103.624,33.319,107.299,27.99,104.447,24.498z M87.295,47.366
							c-1.04,0.149-0.126-1.63-0.126-1.63l-1.529-0.308c0,0,0.164,1.79-0.95,1.413c-0.749-0.25-1.061-1.456-1.186-2.221
							c-0.06-0.368,0.187-0.712,0.555-0.772c1.061-0.173,3.246-0.335,4.911,0.822c0.309,0.215,0.41,0.625,0.205,0.941
							C88.762,46.25,88.002,47.265,87.295,47.366z M89.854,43.007c-1.934-1.312-4.317-1.288-5.69-1.127
							c-0.669,0.079-1.304-0.337-1.485-0.986c-0.381-1.367-0.542-2.478-0.591-3.34c-0.067-1.185,0.675-2.23,1.792-2.634
							c1.039-0.376,1.764-0.976,2.258-1.554c0.754-0.884,1.929-1.256,3.042-0.924c1.128,0.336,2.207,0.58,3.234,0.742
							c1.061,0.167,1.769,1.21,1.557,2.263c-0.738,3.663-1.785,5.977-2.478,7.212C91.163,43.25,90.414,43.387,89.854,43.007z"/>
						<path style="fill:#56114A;" d="M80.129,34.65c0,0-0.546-1.842-2.388-1.228c-1.842,0.614-1.368,5.383,1.433,5.389
							C80.724,38.814,80.129,34.65,80.129,34.65z"/>
					</g>
				</g>
			</g>
			<g>
				<g>
					<g>
						<path style="fill:#FFAA3F;" d="M153.425,113.268H133.66l0,0c0-1.328,1.077-2.405,2.405-2.405h17.359V113.268z"/>
						<rect x="153.425" y="110.863" style="fill:#EC8120;" width="41.792" height="2.405"/>
					</g>
					<g>
						<g>
							<path style="fill:#6AA0C2;" d="M244.641,26.107h-68.989l-24.702,64.511h69.891c0.488,0,0.926-0.301,1.101-0.757l23.8-62.154
								C246.038,26.935,245.468,26.107,244.641,26.107z"/>
							<path style="fill:#185177;" d="M173.544,26.107h2.109l-24.702,64.511h-0.872c-1.132,0-1.913-1.135-1.508-2.192l23.466-61.282
								C172.276,26.52,172.875,26.107,173.544,26.107z"/>
							<path style="fill:#F3E8E2;" d="M205.258,52.914c-0.956,2.496-3.754,4.519-6.25,4.519c-2.496,0-3.745-2.023-2.789-4.519
								c0.956-2.496,3.754-4.519,6.25-4.519C204.966,48.395,206.214,50.418,205.258,52.914z"/>
							<g>
								<path style="fill:#185177;" d="M165.893,85.871h-5.531c-0.547,0-0.821-0.443-0.611-0.991l0,0
									c0.209-0.547,0.823-0.991,1.37-0.991h5.531c0.547,0,0.821,0.443,0.611,0.991l0,0
									C167.053,85.428,166.44,85.871,165.893,85.871z"/>
								<path style="fill:#185177;" d="M174.561,85.871h-5.531c-0.547,0-0.821-0.443-0.611-0.991l0,0
									c0.21-0.547,0.823-0.991,1.37-0.991h5.531c0.547,0,0.821,0.443,0.611,0.991l0,0
									C175.721,85.428,175.108,85.871,174.561,85.871z"/>
								<path style="fill:#185177;" d="M183.228,85.871h-5.531c-0.547,0-0.821-0.443-0.611-0.991l0,0
									c0.21-0.547,0.823-0.991,1.37-0.991h5.531c0.547,0,0.821,0.443,0.611,0.991h0C184.389,85.428,183.775,85.871,183.228,85.871
									z"/>
							</g>
						</g>
						<g>
							<g>
								<path style="fill:#EC8120;" d="M205.286,62.634h-16.363l-4.416,50.634h23.373c1.58,0,2.821-1.354,2.684-2.928l-4.064-46.594
									C206.444,63.117,205.917,62.634,205.286,62.634z"/>
							</g>
							<path style="fill:#FFAA3F;" d="M190.425,63.937l-3.323,46.685c-0.106,1.491-1.346,2.646-2.841,2.646h-16.718v-2.407h17.171
								l4.086-46.834h-3.982v-1.392h4.393C189.92,62.634,190.474,63.234,190.425,63.937z"/>
						</g>
					</g>
				</g>
				<g>
					<g>
						<rect x="151.604" y="113.268" style="fill:#0C1A3C;" width="86.098" height="6.153"/>
						
							<rect x="124.584" y="113.268" transform="matrix(-1 -1.224647e-16 1.224647e-16 -1 278.0091 232.6888)" style="fill:#0C1A3C;" width="28.84" height="6.153"/>
					</g>
					<g>
						<g>
							<path style="fill:#0C1A3C;" d="M210.434,119.427v95.318c0,0.868-0.704,1.572-1.572,1.572l0,0
								c-0.868,0-1.572-0.704-1.572-1.572v-95.318H210.434z"/>
							<g>
								<path style="fill:#231F20;" d="M209.898,202.159c-0.026,0-0.052-0.004-0.078-0.013c-0.13-0.043-0.2-0.183-0.157-0.313
									l23.627-71.195c0.043-0.129,0.183-0.2,0.313-0.157c0.13,0.043,0.2,0.183,0.157,0.313l-23.627,71.195
									C210.098,202.093,210.001,202.159,209.898,202.159z"/>
							</g>
							<g>
								<path style="fill:#231F20;" d="M235.133,205.376c-0.104,0-0.201-0.066-0.235-0.169l-23.627-71.195
									c-0.043-0.13,0.027-0.27,0.157-0.313c0.129-0.042,0.27,0.028,0.313,0.157l23.627,71.195c0.043,0.13-0.027,0.27-0.157,0.313
									C235.185,205.372,235.158,205.376,235.133,205.376z"/>
							</g>
							<path style="fill:#0C1A3C;" d="M237.702,113.268v101.477c0,0.868-0.704,1.572-1.572,1.572h-0.498
								c-0.868,0-1.572-0.704-1.572-1.572V113.268H237.702z"/>
						</g>
						<rect x="153.425" y="119.421" style="fill:#EC8120;" width="80.635" height="17.877"/>
					</g>
					<g>
						<path style="fill:#0C1A3C;" d="M126.156,113.271v101.474c0,0.868-0.704,1.572-1.572,1.572l0,0
							c-0.868,0-1.572-0.704-1.572-1.572V113.271H126.156z"/>
						<g>
							<g>
								<path style="fill:#0C1A3C;" d="M125.62,202.695c-0.026,0-0.052-0.004-0.078-0.013c-0.13-0.043-0.2-0.183-0.157-0.313
									l23.627-71.195c0.043-0.129,0.182-0.199,0.313-0.157c0.13,0.043,0.2,0.183,0.157,0.313l-23.627,71.195
									C125.821,202.63,125.724,202.695,125.62,202.695z"/>
							</g>
							<g>
								<path style="fill:#0C1A3C;" d="M150.855,203.232c-0.104,0-0.201-0.066-0.235-0.17l-23.627-71.195
									c-0.043-0.13,0.027-0.27,0.157-0.313c0.13-0.043,0.27,0.028,0.313,0.157l23.627,71.195c0.043,0.13-0.027,0.27-0.157,0.313
									C150.907,203.227,150.881,203.232,150.855,203.232z"/>
							</g>
						</g>
						<polygon style="fill:#FFAA3F;" points="149.783,136.363 126.156,132.325 126.156,118.893 149.783,118.893 						"/>
						<path style="fill:#0C1A3C;" d="M153.425,113.271v101.474c0,0.868-0.704,1.572-1.572,1.572h-0.498
							c-0.868,0-1.572-0.704-1.572-1.572V113.271H153.425z"/>
					</g>
				</g>
			</g>
		</g>
	</g>
</g>
</svg>
